<svg xmlns="http://www.w3.org/2000/svg" xmlns:xlink="http://www.w3.org/1999/xlink" class="character" width="300" height="300"><defs><path stroke="#000" stroke-miterlimit="10" fill="none" d="M12.5-2.2q.9 5.2-2.2 9.5-3 4.3-8.2 5.2-5.2.9-9.4-2.1-4.4-3-5.3-8.3-.8-5.2 2.2-9.4 3-4.3 8.2-5.2 5.2-.9 9.4 2.1 4.4 3 5.3 8.2Z" data-rand=".2" id="reuse-0"/><path stroke="#000" stroke-linecap="round" stroke-miterlimit="1" fill="none" d="M9-.1q0 3.8-2.6 6.4Q3.7 9.1.1 9.1q-3.8 0-6.5-2.6Q-9.1 3.8-9.1.1q0-3.8 2.5-6.4Q-3.8-9-.1-9.1q3.8 0 6.5 2.6Q8.8-4 9-.2Z" data-rand=".4" id="reuse-1"/><path stroke="#000" stroke-linejoin="round" stroke-linecap="round" fill="none" d="M9 44.4q0-4 .7-14.1.8-10.2 1.3-12.8.7-3.4 1.7-17.2m-25.1 2.4q3.8 16.1 3.8 20l-.5 21.6" data-rand="0" id="reuse-2"/><path stroke="#000" stroke-linejoin="round" stroke-linecap="round" fill="none" d="M9.5 0q0 4-2.8 6.7Q3.9 9.5 0 9.5q-3.9 0-6.8-2.8Q-9.4 3.9-9.4 0q0-3.9 2.8-6.7Q-4-9.5 0-9.5q3.9 0 6.7 2.8Q9.4-3.9 9.4 0Z" data-rand=".3" id="reuse-3"/><path stroke="#000" stroke-linecap="round" stroke-miterlimit="3" fill="none" d="M-9.4 45q-.9-4-1.3-8.1-.9-8.1-.6-15.3.4-7.1-.5-13-.9-6.3-1-8.4m25.5 0q-1.8 27.8-3.2 44v1.1" data-rand=".6" id="reuse-4"/><path stroke="#000" stroke-linejoin="round" stroke-linecap="round" fill="none" d="m9.4 45.3-.2 1.2m-18.5-.3-.1-1.2" data-rand=".2" id="reuse-5"/><path stroke="#000" stroke-linecap="round" stroke-miterlimit="1" fill="none" d="M2.7 1.8Q2 3 .7 3.2l-.7.1q-1 0-1.8-.5Q-3 2-3.2.6l-.1-.7q0-1 .5-1.8.8-1.1 2.1-1.4l.7-.1q1 0 1.8.5Q3-2 3.2-.6l.1.7q0 1-.6 1.8Z" data-rand=".4" id="reuse-6"/><path stroke="#000" stroke-linecap="round" stroke-miterlimit="1" fill="none" d="m-3.5 40.2.3 1.3M-9 2Q-9.1.8-9.1-.5" data-rand=".8" id="reuse-7"/><path stroke="#000" stroke-linejoin="round" stroke-linecap="round" fill="none" d="m3.3 41.6 1.4-9.1 1.8-12.4q1-3.8 1.6-7 1-6 1-12.5 0-1.8-.3-2.6M-8.8 2l2.8 12 1 12.1q.8 9.3 1.5 14.1" data-rand=".5" id="reuse-8"/><path stroke="#000" stroke-linejoin="round" stroke-linecap="round" fill="none" d="M9.5-.7q0 8.8-.7 16.6-.3 4.7-.4 12l.7.2.3 1.6q.2 2-.7 3.6l-.6-.1-.4 4.3q-5.5-.4-9.5-.2t-5.2.5l.2-3.3-.2-1.7-.9-1.8q-.8-2 .5-3.1l.2-.1q-.1 0 0 0L-9.6.4m14 25.6.2 1q2 .1 3.6.7h.1m-15.7 0q3.4-.6 6.5-.7h2.5q-.1-.8-.3-1m6.7 7.1H8q-1.3-.3-3-.4l-.7 1.5-2.4-.3.1-1.5q-6-.3-8.8.5l-.2-.2m9-.3.1-1.4q.1-2.6-.4-4m3 0 .4 1.8q.3 2.3-.1 3.9" data-rand=".4" id="reuse-9"/><path stroke="#000" stroke-linejoin="round" stroke-linecap="round" fill="none" d="M-7.4 4.8q2 3 5.6 3.8.5.2 1.6.2 2.7.1 5-1.4 3-1.9 3.8-5.5L8.8.2v-.5q0-2.3-1.4-4.3-2-3.1-5.5-3.9L.1-8.9q-2.5 0-4.8 1.4-3.1 2-3.9 5.5l-.2 1.8q0 2.6 1.4 5Z" data-rand=".4" id="reuse-10"/><path stroke="#000" stroke-linejoin="round" stroke-linecap="round" fill="none" d="m15.7 3.2-2.3 21.6q0 3-.4 6.1l-.7 5.7Q8.8 61.1 8.8 62.7m-17.6-.5q0-5.1-1.5-19.6-.6-5.9-.9-12.4l-.3-6.3Q-12 20.5-14 5.8" data-rand="1" id="reuse-11"/><path stroke="#000" stroke-linecap="round" stroke-miterlimit="1" fill="none" d="M-16.9-.8q.3-7 5.4-11.7 5.2-4.6 12-4.4 7 .3 11.7 5.4 4.7 5.1 4.4 12-.3 7-5.4 11.7-5.1 4.7-12 4.4-7-.3-11.7-5.4-4.6-5.1-4.4-12Z" data-rand=".1" id="reuse-12"/><path stroke="#000" stroke-linejoin="round" stroke-linecap="round" fill="none" d="m16.6 1-.7 4.7q-.8 4.9-1.2 9.3-1.4.4-5 .9l-4.9.5q-1.8.3-5.2.2-2.4-.1-4.6-.5l-8.6-1.2q-3.2-11.5-3.2-13.1" data-rand=".5" id="reuse-13"/><path stroke="#000" stroke-linecap="round" stroke-miterlimit="1" fill="none" d="M-11.8-.6q.3-4.8 3.8-8.1 3.6-3.3 8.4-3.1 4.9.2 8.2 3.8 3.3 3.5 3.1 8.4-.2 4.9-3.7 8.2-3.7 3.3-8.6 3.1-4.8-.2-8.1-3.8-3.3-3.6-3.1-8.5Z" data-rand=".9" id="reuse-14"/><path stroke="#000" stroke-linecap="round" stroke-miterlimit="1" fill="none" d="M16.6-.1q-.8 16.2-2.2 32.9L13 50.5q-.3 7-1 12.4m-23.8 0-1.7-18.3q-.8-7.4-.8-8.6-.8-8.1-1-16.9-.1-3.1-.8-9.8-.7-6.3-.7-9.5" data-rand=".3" id="reuse-15"/><path fill="#fff" d="M-4.2.1q-.1.5 1.5 1.3 1.9 1 3.8.8Q3.2 2 4.5.5q-.7-1.2-1.8-2h-5.4q-.8.7-1.5 1.6Z" id="reuse-16"/><path fill="#231f20" d="M2.2-.1q0-1-.8-1.5-.6-.7-1.5-.6-.8 0-1.4.8-.7.6-.6 1.5 0 1 .7 1.5.7.7 1.5.6 1 0 1.5-.8.6-.6.6-1.5Z" data-rand=".1" id="reuse-17"/><path stroke="#231f20" stroke-width=".297" stroke-miterlimit="10" fill="none" d="M2.2-.1q0 .9-.6 1.5-.6.8-1.5.8-.8 0-1.5-.6Q-2 1-2 .1q0-1 .6-1.5.6-.8 1.4-.8.9 0 1.5.6.7.6.8 1.5Z" data-rand=".3" id="reuse-18"/><path stroke="#151313" stroke-width=".297" stroke-miterlimit="3" fill="none" d="M2.2-.1q0 .9-.6 1.5-.6.8-1.5.8-.8 0-1.5-.6Q-2 1-2 .1q0-1 .6-1.5.6-.8 1.4-.8.9 0 1.5.6.7.6.8 1.5Z" data-rand=".1" id="reuse-19"/><path fill="#fff" fill-opacity=".2" d="M1.3-1.3Q.7-1.9 0-1.9q-.7 0-1.3.6Q-2-.8-2 0t.6 1.3Q-.7 2 0 2q.7 0 1.3-.6Q2 .8 2 0t-.6-1.3M0-1.5q.6 0 1 .5.4.4.4 1T1 1q-.4.5-1 .5T-1 1Q-1.4.6-1.4 0q0-.6.4-1 .4-.5 1-.5Z" data-rand=".2" id="reuse-20"/><path fill-opacity=".7" d="M.6-.6Q.4-.8 0-.8l-.6.2-.2.6q0 .4.2.6.3.3.6.3Q.4.9.6.6 1 .4 1 0q0-.3-.3-.6Z" data-rand=".9" id="reuse-21"/><path fill-opacity=".3" d="M2.2-.4q-.2-.8-.8-1.3-.6-.6-1.4-.6-.7 0-1.3.4-1 .8-1 1.9v.5l.4-.5q.4-.6.6-.3l.3.6q.3.8.8.9.6 0 1-.6.3-.5.1-1 .3 0 .7.4.3.3.4.9v.3q.3-.7.3-1.2v-.4Z" data-rand=".5" id="reuse-22"/><path fill="#fff" d="M.5-1q0 .5.4.5t.4-.5q0-.4-.4-.4l-.3.2v.3Z" data-rand=".9" id="reuse-23"/><path fill-opacity=".1" d="M.3 3.6q1.1 0 1.8-.4l-.9.1q-1.3.2-3-.1L-3 2.9q1.4 1 3.5.8M2.6-4l-2-.7Q-2-5-3.9-4.2q-.4.2-.5.5-.6.8-.3 2.2.4-.9 1.5-1.6Q-.8-4.7 2.7-4Z" data-rand=".1" id="reuse-24"/><path stroke="#000" stroke-width=".3" stroke-linecap="round" stroke-miterlimit="3" fill="none" d="m3.3-3.5-.7-.3L.9-4q-2.7.3-4.2 1.6-.9.8-1 1.5" data-rand=".6" id="reuse-25"/><path stroke="#000" stroke-width=".8" stroke-linejoin="round" stroke-linecap="round" fill="none" d="M2.7-1.4Q4-.6 4.9 1m-9-.7q.2-.6.7-1.1" data-rand=".6" id="reuse-26"/><path stroke="#000" stroke-width=".3" stroke-linejoin="round" stroke-linecap="round" fill="none" d="M4.5.4q-.3.5-1 1-1.5.9-3.5.8-1.2 0-2.5-.8l-1.7-1" data-rand="0" id="reuse-27"/><path stroke="#000" stroke-width=".8" stroke-linecap="round" stroke-miterlimit="3" fill="none" d="M4-1Q2.6-1.5.5-1.5q-1.1-.1-2.5.2l-2 .6" data-rand=".9" id="reuse-28"/></defs><g class="body"><g class="c1"><g class="tb"><path fill="#eabfa1" d="M269.9 298.8q-10.2-15-27.8-18.3-17.6-3.4-32.6 6.6t-18.4 27.6q-3.4 17.4 6.6 32.4t27.7 18.6Q243 369 258 359q15-10 18.4-27.6 3.5-17.6-6.5-32.6Z" data-rand="1"/><use stroke-miterlimit="10" data-rand=".2" transform="matrix(3.123 -1.386 1.388 3.123 233.905 322.987)" xlink:href="#reuse-0"/></g><g class="ta"><path fill="#eabfa1" d="M323 447.4q-5.6-11.7-17.5-16-12-4.4-23.6 1-11.4 5.2-16.2 17.2-4.4 12 1.2 23.7 5 11.5 17.1 16.3 12.2 4.3 23.9-1 11.3-5.1 15.8-17.4 4.6-12-.7-23.8Z" data-rand=".3"/><use stroke-linecap="round" stroke-miterlimit="1" data-rand=".4" transform="matrix(3.123 -1.386 1.388 3.123 294.977 460.4)" xlink:href="#reuse-1"/></g><path fill="#eabfa1" d="M292.4 362.5q-2.6-11.8-18.4-56.2-12.1 2.2-27.6 8.7-31 12.8-47.6 33.7 34.3 45 39.8 57.1 4.7 10.8 28.5 68 7.6-1.8 18.4-5.8 21.8-8 38.2-19-5.7-12.5-17.4-44.8-11.8-32.8-14-41.7Z" data-rand=".8"/><use stroke-linejoin="round" stroke-linecap="round" data-rand="0" transform="matrix(3.123 -1.386 1.388 3.123 233.905 322.987)" xlink:href="#reuse-2"/></g></g><g class="body"><g class="c1"><g class="tb"><path fill="#eabfa1" d="M30.7 301.2q9-15.5 26.4-20 17.2-4.6 32.8 4.3 15.6 9 20.2 26.2 4.7 17-4.3 32.6-9 15.6-26.2 20.3-17.3 4.5-33-4.4-15.5-9-20.1-26.1-4.8-17.3 4.2-32.9Z" data-rand=".6"/><use stroke-miterlimit="10" data-rand=".2" transform="matrix(-3.2014 -1.1652 -1.1652 3.1924 68.143 322.814)" xlink:href="#reuse-0"/></g><g class="ta"><path fill="#eabfa1" d="M-12 452.3q4.8-12 16.4-17Q16 430 28 434.5q11.8 4.4 17.3 16 5.3 11.5.5 23.5-4.3 11.9-16 17.4-11.7 5-23.7.6-11.7-4.3-17-16.2-5.4-11.5-1-23.6Z" data-rand=".5"/><use stroke-linecap="round" stroke-miterlimit="1" data-rand=".2" transform="matrix(-3.2014 -1.1652 -1.1652 3.1924 16.873 463.28)" xlink:href="#reuse-1"/></g><path fill="#eabfa1" d="M12.7 366q1.8-12 14.4-57 12.2 1.3 28 6.7Q86.8 326.3 105 346q-31.1 47-35.7 59.4-4 11-23.6 69.3-7.8-1.2-18.7-4.4-22.3-6.5-39.4-16.3 4.8-12.8 14.3-45.7Q11.2 375 12.7 366Z" data-rand=".8"/><use stroke-linejoin="round" stroke-linecap="round" data-rand="0" transform="matrix(-3.2014 -1.1652 -1.1652 3.1924 68.143 322.814)" xlink:href="#reuse-2"/></g></g><g class="body"><g class="c1"><path fill="#eabfa1" d="M170.6 247.4q-8.5-8.5-20.2-8.5t-20.3 8.5q-8.3 8.6-8.3 20.7t8.3 20.4q8.6 8.7 20.3 8.7 11.7 0 20.2-8.7 8.5-8.3 8.5-20.4 0-12-8.5-20.7Z" data-rand=".6"/><path stroke="#000" stroke-linecap="round" stroke-miterlimit="1" fill="none" d="M8.1 0q0 3.4-2.4 5.7Q3.3 8.1 0 8.1q-3.3 0-5.8-2.4Q-8 3.4-8 0q0-3.3 2.3-5.7Q-3.3-8.1 0-8.1t5.7 2.4Q8.1-3.3 8.1.1Z" data-rand=".5" transform="matrix(3.54 0 0 3.6 150.417 267.953)"/><path fill="#eabfa1" d="M177.8 214.7q-15.8-3.4-27.2-3.4h-.4q-11.3 0-27.2 3.4l-1.5 53.3h57.8l-1.5-53.3Z" data-rand="1"/><path stroke="#000" stroke-linecap="round" stroke-miterlimit="1" fill="none" d="m8.5 0-.4-15.5m-16.1 0L-8.6 0" data-rand=".4" transform="matrix(3.4 0 0 3.44 150.417 267.953)"/></g></g><g class="body"><g class="c118"><g class="tb"><path fill="#343434" d="M269.9 298.8q-10.2-15-27.8-18.3-17.6-3.4-32.6 6.6t-18.4 27.6q-3.4 17.4 6.6 32.4t27.7 18.6Q243 369 258 359q15-10 18.4-27.6 3.5-17.6-6.5-32.6Z" data-rand=".1"/><use stroke-miterlimit="10" data-rand=".7" transform="matrix(3.123 -1.386 1.388 3.123 233.905 322.987)" xlink:href="#reuse-0"/></g><g class="ta"><path fill="#343434" d="M306.4 430.3q-12.4-5-24.6.4-12.2 5.4-17.2 18.1-4.7 12.6.7 24.8 5.5 12.3 17.9 17 12.8 4.9 25-.5 12.1-5.4 16.8-18 5.1-12.5-.4-24.9-5.4-12.1-18.2-17Z" data-rand=".7"/><use stroke-linejoin="round" stroke-linecap="round" data-rand=".3" transform="matrix(3.123 -1.386 1.388 3.123 294.977 460.4)" xlink:href="#reuse-3"/></g><path fill="#343434" d="M327.4 454.2q-19.5-55.6-53.6-148.2-25.5-5.8-48 4-22.6 10-31.4 31.3 3.1 6.6 14.5 24.7 11 17.4 20 40.2 8.7 22.7 22.8 46.9 5.2 9.2 17.2 26v.1q16.2 1 31.7-6.2 15.1-6.7 26.9-18.6l-.1-.2Z" data-rand="1"/><use stroke-linecap="round" stroke-miterlimit="3" data-rand=".6" transform="matrix(3.123 -1.386 1.388 3.123 233.905 322.987)" xlink:href="#reuse-4"/><use stroke-linejoin="round" stroke-linecap="round" data-rand=".2" transform="matrix(3.123 -1.386 1.388 3.123 233.905 322.987)" xlink:href="#reuse-5"/></g></g><g class="body"><g class="c118"><g class="tb"><path fill="#343434" d="M30.7 301.2q9-15.5 26.4-20 17.2-4.6 32.8 4.3 15.6 9 20.2 26.2 4.7 17-4.3 32.6-9 15.6-26.2 20.3-17.3 4.5-33-4.4-15.5-9-20.1-26.1-4.8-17.3 4.2-32.9Z" data-rand=".9"/><use stroke-miterlimit="10" data-rand=".5" transform="matrix(-3.2014 -1.1652 -1.1652 3.1924 68.143 322.814)" xlink:href="#reuse-0"/></g><g class="ta"><path fill="#343434" d="M3.4 434.1q12-5.7 24.5-1.1 12.5 4.5 18.4 16.8 5.5 12.1 1 24.5-4.6 12.7-16.6 18.2-12.4 5.7-24.9 1.1-12.5-4.5-18-16.7-6-12-1.3-24.7 4.5-12.4 16.9-18Z" data-rand=".1"/><use stroke-linejoin="round" stroke-linecap="round" data-rand=".7" transform="matrix(-3.2014 -1.1652 -1.1652 3.1924 16.873 463.28)" xlink:href="#reuse-3"/></g><path fill="#343434" d="M-15.8 459.3q15.6-56.5 43-150.6 25.1-7.6 48 .6 23.3 8.5 33.5 29-2.6 6.8-12.7 25.6-9.7 18-17 41.1-7.2 23.1-19.6 48-4.6 9.6-15.3 27v.2q-16 2-32-4-15.5-5.6-28-16.7l.1-.2Z" data-rand=".9"/><use stroke-linecap="round" stroke-miterlimit="3" data-rand="1" transform="matrix(-3.2014 -1.1652 -1.1652 3.1924 68.143 322.814)" xlink:href="#reuse-4"/><use stroke-linejoin="round" stroke-linecap="round" data-rand="0" transform="matrix(-3.2014 -1.1652 -1.1652 3.1924 68.143 322.814)" xlink:href="#reuse-5"/></g></g><g class="body"><g class="c1"><g class="ta"><path fill="#eabfa1" d="M304 588.6q-4.6 1.5-6.8 5.4-1.6 3-1.3 6.3 0 1 .5 2.2 1.3 4.5 5.4 6.7 3 1.6 6.3 1.4 1-.1 2.2-.6 4.5-1.2 6.5-5.3 1.8-3.1 1.5-6.3 0-1-.5-2.2-1.3-4.5-5.4-6.7-3-1.7-6.3-1.4-1 .1-2.2.5Z" data-rand=".7"/><use stroke-linecap="round" stroke-miterlimit="1" data-rand=".4" transform="matrix(3.4006 -.297 .2984 3.4006 307.108 599.338)" xlink:href="#reuse-6"/></g><path fill="#eabfa1" d="M323.2 526.5q1.8-14.6 2.4-27 1.4-23-.4-45.8-61.4 9.6-60.9 11.3l13.9 44.5q1.4 6.4 7.3 40.8 5.3 31.3 9.3 47.4l1.4 4.5 22.1-1.8q.3-.7 2-31.3 2-34 2.9-42.6Z" data-rand=".6"/><use stroke-linecap="round" stroke-miterlimit="1" data-rand=".8" transform="matrix(3.4006 -.297 .2984 3.4006 294.873 459.914)" xlink:href="#reuse-7"/><use stroke-linejoin="round" stroke-linecap="round" data-rand=".5" transform="matrix(3.4006 -.297 .2984 3.4006 294.873 459.914)" xlink:href="#reuse-8"/></g></g><g class="body"><g class="c1"><path fill="#eabfa1" d="M314.7 682q4.3-4 14.7-24.5l-1.8-8.3q-.7-6.5-10-46.4l-21.3-1-.2 11.6q-.3 10.2 4.4 22.6 2.4 6 4.9 10l3 4.2q.4 2.4-4.3 14.7l-5.3 4q2 .3-5.8 0-5-.3-6.4 2.6-.8 1.4-.6 3l8.2 3.6-9.7 2.8q-2 3.4 1 7.3 24.8-2 29.2-6.1Z" data-rand=".3"/><path stroke="#000" stroke-width=".8" stroke-linejoin="round" stroke-linecap="round" fill="none" d="M2.9 1.1q2.2 11.3 2.3 13.8l.4 2.4-1.8 3q-2.1 3.1-3 3.8-.9.8-3.6 1.2l-3 .3q-1.5.1-1.9-.1-.4-.2-.5-1.1 0-1 1.2-1.3l2-.4-1.4-.4q-.9-.4-1-1 0-.7.8-1.1.6-.3 1.3-.3l1.8.2 1.9-1.4Q-.3 15.7-.5 15l-1.3-2" data-rand="0" transform="matrix(3.4353 -.18 .1804 3.4353 307.053 599.095)"/><path stroke="#8c7361" stroke-width=".3" stroke-linejoin="round" stroke-linecap="round" fill="none" d="m3.3 18.1-3.8 4.3q-.3.3-2 .3H-5" data-rand=".6" transform="matrix(3.4353 -.18 .1804 3.4353 307.053 599.095)"/></g></g><g class="body"><g class="c1"><path fill="#eabfa1" d="m307.6 636-11.3-31.2q-6.3 17.4-6 23.8.8 13.9.5 15.8l-1.2 10.2q-.6 7.4 1.4 8.9 2.7 2 5.6-.8 3.5-3.3 3.5-11.7l2-7.2 5.5-7.9Z" data-rand=".5"/><path stroke="#000" stroke-width=".8" stroke-linejoin="round" stroke-linecap="round" fill="none" d="M-3.1.8q-2.2 5.7-2.2 7.5l-.1 4.6-.8 3.1q-.4 2.3.5 2.6 1 .4 1.8-.3 1-.9 1.1-3.4.9-2.6 2.3-4.2" data-rand=".2" transform="matrix(3.4353 -.18 .1804 3.4353 307.053 599.095)"/></g></g><g class="body"><g class="c118"><path fill="#343434" d="M327 455.4q-8.2-3.6-20.2-4.2-24.3-1.3-44 14l15.5 90.4.6-.6q9.7-2.2 21.3-3.7l8.6-1q2 5.2 2.4 13.7l.3 5v2.7l-.3 2.4h8.4l.5-1 1-3 .3-1.1q1-5.8-.6-13.2l-2-6q7.6-.3 12.5 1.2h.3q-1.6-24.8-1.9-39.8-.1-26-2.7-55.8Z" data-rand=".2"/><path fill="#343434" d="M331.6 551h-.3q-5-1.5-12.4-1.2l1.9 6q1.9 8.3.7 14.2l-.3 1-1 3.2-.5 1h-8.4l.3-2.5-.3-7.7q-.5-9.5-2.5-14.6-4 .3-8.6.9-11.6 1.5-21.3 3.7l-.6.6-.4.4q-1.8 2-2 5.1-.1 3.3 1.4 6.6 1.6 3.4 3.7 5.8l1 5.8.5 11.2q2.8-1 8.3-1.7 6.2-.7 9-1.5 13.5-1.2 32.3-2v-14.9l2.5.2q2.2-5.9 1-13l-1.7-6-2.3-.7Z" data-rand=".9"/><use stroke-linejoin="round" stroke-linecap="round" data-rand=".4" transform="matrix(3.4006 -.297 .2984 3.4006 294.873 459.914)" xlink:href="#reuse-9"/></g></g><g class="body"><g class="c1"><g class="ta"><path fill="#eabfa1" d="M7.8 592.4q4.5 1.4 6.7 5.4 1.7 3 1.4 6.3-.1 1-.6 2.1-1.2 4.6-5.3 6.8-3 1.6-6.3 1.3-1 0-2.2-.5-4.5-1.3-6.5-5.4-1.8-3-1.5-6.3 0-1 .5-2.2 1.3-4.5 5.4-6.7 3-1.6 6.3-1.3 1 0 2.1.5Z" data-rand=".8"/><use stroke-linecap="round" stroke-miterlimit="1" data-rand=".3" transform="matrix(-3.394 -.297 -.297 3.4006 4.678 603.086)" xlink:href="#reuse-6"/></g><path fill="#eabfa1" d="M-11.4 530.2q-1.8-14.5-2.4-26.9-1.4-23 .4-45.9 61.3 9.7 60.8 11.3l-13.8 44.6q-1.5 6.4-7.4 40.8-5.3 31.2-9.2 47.3-1.2 4-1.5 4.5l-22-1.7q-.3-.7-2-31.4-2-34-2.9-42.6Z" data-rand=".6"/><use stroke-linecap="round" stroke-miterlimit="1" data-rand=".1" transform="matrix(-3.394 -.297 -.297 3.4006 16.857 463.661)" xlink:href="#reuse-7"/><use stroke-linejoin="round" stroke-linecap="round" data-rand=".2" transform="matrix(-3.394 -.297 -.297 3.4006 16.857 463.661)" xlink:href="#reuse-8"/></g></g><g class="body"><g class="c1"><path fill="#eabfa1" d="M7.2 599.3q2.1.2 4.3 2l3.3 3.4 2.8 2.3q.8 14 .5 22.4 0 4.8-6.4 16.3l-1.1 10.4q-.4 3.1.1 9l6.2 4.1q5.4 4.4 3 6.2-1 .6-3.7-.1l4.4 2q3.8 2 3.2 5.1-.2 1.6-1.2 2.9L10 683l2.7 1.6q2.8 2 4.9 4.7 2 2.7-.2 4-1 .7-2.3.8l-11.4-3.7 1.7 2.5q1.5 3.4-.6 5-1.2 1-2.6 1l-8.5-4.5q-12.3-12.1-12.3-15.4 0-2.2-2-12.5-1.9-9-2.5-11-.4-.9 0-4.2l.3-3.3q8-22 9.4-24.6 1.2-2.6 4.7-18.5 6.2-6.5 16-5.6Z" data-rand=".9"/><path stroke="#8c7361" stroke-width=".3" stroke-linejoin="round" stroke-linecap="round" fill="none" d="m4.3 16.9.4 4.5L3.4 23Q2.2 24.7 2 25.2" data-rand=".7" transform="matrix(-3.4336 .1804 .1804 3.4353 4.677 602.843)"/><path stroke="#000" stroke-width=".8" stroke-linejoin="round" stroke-linecap="round" fill="none" d="m3.3-.6 2.3 6.3q.5.8 3.1 7l.2 1v1.2q-.2.5-.6 3.2L8 21.7q.1 1-3.3 4.7l-2.4 1.5q-.4 0-.8-.3-.6-.5-.2-1.5l.4-.7-3.2 1.3q-.4 0-.7-.3-.7-.3-.1-1.1.5-.8 1.3-1.4l.8-.5-3.7.8q-.3-.3-.3-.8-.3-.9.8-1.5l1.6-.8q-1 .4-1.4.2-.8-.5.8-1.9l1.7-1.3-.1-2.6-.5-3q-2-3.2-2.1-4.6l-.1-3.7q0-2.9.4-3.6M-2 21.1l.5-.3.7-.4m1.4 2.3-1 .7" data-rand=".4" transform="matrix(-3.4336 .1804 .1804 3.4353 4.677 602.843)"/></g></g><g class="body"><g class="c1"><path fill="#eabfa1" d="M7.5 679.7q-3 2.2-5.5-.2-2-2-3-10.2l-.3-10q-.3-6-2-9.5-3.6-5-5-7.4-2.5-4.1-.9-8.5 1.7-4.8 6-8 4.3-3 9.3-2.8 5.3.4 8.7 3 4 3.2 2.3 9.7-1 3.1-4.7 9.9-2 3.9-1.1 13.8 1 11-.1 14.7-1.2 3.5-3.7 5.5Z" data-rand=".3"/><path stroke="#000" stroke-width=".8" stroke-linejoin="round" stroke-linecap="round" fill="none" d="m-1 18.1-.1-2.6-.5-3q-1.9-3.2-2-4.6" data-rand=".3" transform="matrix(-3.4336 .1804 .1804 3.4353 4.677 602.843)"/><path stroke="#8c7361" stroke-width=".3" stroke-linejoin="round" stroke-linecap="round" fill="none" d="M4 12q-1.3 1.6-1.3 2v5.6q0 .8-.2 1.5-.4 1.3-1.3 1.6-.4.1-.8-.2-1-.6-1.2-2.6l-.2-1.8" data-rand=".7" transform="matrix(-3.4336 .1804 .1804 3.4353 4.677 602.843)"/></g></g><g class="body"><g class="c118"><path fill="#343434" d="M-15.2 459.1q8.1-3.5 20.2-4.2 24.2-1.3 43.9 14l-15.4 90.4-.7-.5q-9.7-2.2-21.2-3.8l-8.6-.9q-2 5.1-2.4 13.7-.3 2.7-.3 5v2.7l.3 2.4h-8.4l-.5-1-1-3.1-.3-1q-1-5.8.6-13.2l2-6q-7.6-.3-12.5 1.1h-.3q1.6-24.8 2-39.8 0-26 2.6-55.8Z" data-rand=".7"/><path fill="#343434" d="M-19.8 554.7h.3q5-1.4 12.4-1.1l-1.9 6q-1.9 8.2-.7 14.1l.3 1 1 3.3.5.9H.5l-.3-2.4.3-7.7q.5-9.6 2.5-14.7l8.6 1q11.5 1.5 21.2 3.7l.7.5q0 .2.3.4 1.8 2 2 5.2.1 3.2-1.3 6.5-1.7 3.5-3.8 5.9l-1 5.7-.5 11.3q-2.8-1-8.2-1.8-6.3-.7-9.1-1.5-13.4-1.1-32.2-2v-14.8l-2.4.1q-2.3-5.8-1.1-13l1.7-6 2.3-.6Z" data-rand=".3"/><use stroke-linejoin="round" stroke-linecap="round" data-rand=".3" transform="matrix(-3.394 -.297 -.297 3.4006 16.857 463.661)" xlink:href="#reuse-9"/></g></g><g class="body"><g class="c1"><g class="ta"><path fill="#eabfa1" d="M135 799.9q.7 3.3.6 6-.1 8.8-5.3 16.6-7 10.2-19.4 12.5-1.9.4-5.6.5-9.2 0-16.7-5.2-10-6.8-12.3-19.2-.6-3.4-.5-6.1v-2q.4-7.5 5-14.4 7.2-10.3 19.4-12.6 4.1-.7 6-.6 8.5.1 16.3 5.2 10.4 7.1 12.5 19.3Z" data-rand=".1"/><use stroke-linejoin="round" stroke-linecap="round" data-rand=".4" transform="matrix(-3.4051 -.119 -.119 3.4006 105.64 805.505)" xlink:href="#reuse-10"/></g><path fill="#eabfa1" d="m66.7 715-1.5-19.4q-.9-10.7-.8-21l-5-73.6q46.8-17.5 78.4-4.3 15.7 6.5 22.1 16.6-8.5 49.8-10 61.1-.4 1.9-1.9 21.6-1.8 22-4.5 42-6.7 49.2-7.7 66.7-8 3.3-19.6 5-23 3.2-40.3-5.6 0-5.4-9.2-89.2Z" data-rand=".3"/><use stroke-linejoin="round" stroke-linecap="round" data-rand="1" transform="matrix(-3.4051 -.119 -.119 3.4006 113.114 591.947)" xlink:href="#reuse-11"/></g><g class="c5"><g class="tb"><path fill="#252326" d="M73.4 551.4q16.4-16.8 39.9-17 23.3 0 40 16.4 16.5 16.7 16.9 40.2 0 23.5-16.3 40.5-16.6 16.8-39.9 17-23.5.2-40.3-16.4Q57.1 615.4 57 592q0-23.7 16.5-40.5Z" data-rand=".6"/><use stroke-linecap="round" stroke-miterlimit="1" data-rand=".1" transform="matrix(-3.371 -.1178 -.119 3.4006 113.114 591.947)" xlink:href="#reuse-12"/></g><path fill="#252326" d="M78.7 587.8q19-3.5 34.7-2.8 16.8.7 32.3 4.9 15.6 4 24.4 10.2-.4 5.4-12.6 44.1-18.5 3-40.5 3.5-17.1.5-22.2-.4-6.6-.7-16.6-2.4-12-2.2-17-3.7-.6-14.1-3.2-29.4-2.3-12.2-1.8-16.9 4.3-3.8 22.5-7Z" data-rand=".6"/><use stroke-linejoin="round" stroke-linecap="round" data-rand=".5" transform="matrix(-3.4051 -.119 -.119 3.4006 113.114 591.947)" xlink:href="#reuse-13"/></g></g><g class="body"><g class="c12"><g class="ta"><path fill="#241609" d="M85.9 992.5q1.5-8.3 8.6-13 5.3-3.5 11.2-3.4 2 0 4 .6 8.3 1.7 13 8.5 3.4 5.4 3.4 11.2 0 2-.5 4.1-1.7 8.3-8.6 12.7-5.3 3.7-11.3 3.7-2.1 0-4-.6-8.3-1.5-12.9-8.6-3.6-5.3-3.4-11.3 0-2 .5-4Z" data-rand=".6"/><path stroke="#000" stroke-linecap="round" stroke-miterlimit="1" fill="none" d="M0-5.9q1.7 0 3.3 1 2 1.4 2.5 3.8L5.8 0q0 1.8-1 3.3-1.4 2-3.8 2.5Q.6 6 0 6q-1.8 0-3.3-1.1-2-1.3-2.5-3.7L-6 0q0-1.7 1-3.3 1.4-2 3.8-2.5L0-5.8Z" data-rand=".9" transform="matrix(-3.4384 0 0 3.4353 105.654 996.41)"/></g><path fill="#241609" d="M27 1071.3q-8.5-1.7-13.3-5.3-2.4-1.7-3.8-3.6-4.6-7.4 4.8-16.9l.4-.1q5.8-5.4 16.5-10.9 4.4-1.8 8-3.6 6.6-3 10-4.8 3.1-1.3 7.7-4.8l1.6-1.2 13.6-7.7q3.8-2 7.9-7.2 4.3-5.2 5-9H126q.4 2.6 1.7 7.3 1.6 5.8 3 16.8l.1 1.7.2 1.9q.7 7 .5 12.9-.3 5.1-3.8 8.6l-1.9 1.7q-1.5 1-5.6 2-6 1.4-8 2.1-7.2 2.4-12.8 6-3.5 2.2-10.7 7.6-6.2 4.4-12.9 7.2-3 1.4-6 2.4-9.1 2.6-21.5 1-3.3-.3-21.5-4.1Z" data-rand=".3"/><path stroke="#000" stroke-linecap="round" stroke-miterlimit="3" fill="none" d="M5.9 0q.2 1 1.4 2.5Q8.7 4 9.8 4.8l3.9 2.2.5.3 2.2 1.5 2.9 1.4 2.4 1q3 1.6 4.8 3.2 0 0 0 0 2.8 2.8 1.5 4.9-.4.6-1.1 1-1.4 1.1-3.9 1.6L16.6 23q-3.6.4-6.2-.3L8.6 22q-1.9-.8-3.7-2.1l-3.1-2.2q-1.7-1-3.8-1.8l-2.3-.6q-1.2-.3-1.6-.6l-.5-.4q-1-1-1.1-2.6-.1-1.6.1-3.7v-.5l.1-.5q.4-3.3.8-5Q-6 .7-6 0" data-rand=".7" transform="matrix(-3.4384 0 0 3.4353 105.654 996.41)"/><path stroke="#160d05" stroke-width=".3" stroke-linecap="round" stroke-miterlimit="3" fill="none" d="M-4.2.7q.1.6-.8 2.5-.7 1.1.8 2" data-rand=".9" transform="matrix(-3.4384 0 0 3.4353 105.654 996.41)"/></g></g><g class="body"><g class="c1"><path fill="#eabfa1" d="M114.3 801.6q12.1.8 21.3 3 0 1.5.9 7.8 1.7 10.2 2.5 17.2 3 21 .2 43.4-1.7 13-5.8 31.4-1.9 9-4.2 37.8-3 32.6-3.3 52.7-13.4 4-28.3 2-7.3-1-12-2.9l-7.7-141.4-1.2-17.4q-1-15-.9-29.2 14.4-6.3 38.5-4.4Z" data-rand=".8"/><path stroke="#000" stroke-linejoin="round" stroke-linecap="round" fill="none" d="M8.8 0q0 4.3-.3 8.7l-.3 5-2.3 41.7m-11.9.2q0-5.9-.9-15.5-.7-8.5-1.3-11.1-1.2-5.4-1.7-9.3-.8-6.5.1-12.7l.8-5 .2-2.4" data-rand=".2" transform="matrix(-3.4072 0 0 3.4006 105.654 805.803)"/></g></g><g class="body"><g class="c6"><path fill="#fff" d="M-2.5 1046.4q30.6-15.1 37-18 16.1-7.8 33.7-20.5 2.4-5.9 3.6-7.7 2.4-3.4 10.6-4 10.8-.4 16 4.2l3.3-.2q11.9-.9 28.5-6.2l1.6 6.7q1.5 7.2 1 8.8 0 .2-.3.5l2.7 16.3q1 14.3-.7 24.4.6-4.2.9-10.1-5.2 3.8-24.8 8.4l-1 .1q-5.5 1.2-17.9 9.1-11.1 7.3-33.7 10.7-20.6 3-40-3.1-12.6-4.1-22.2-11v-.2q0-2.9.9-5.8l.8-2.4Z" data-rand=".2"/><path stroke="#000" stroke-width=".9" stroke-linejoin="round" stroke-linecap="round" fill="none" d="M11.1 3.4q5.1 3.6 9.8 5.9 1.9.8 10.8 5.3l.2.7q.3.8.3 1.6v.1m-40.7-4.2.1-4.1.8-4.7" data-rand=".1" transform="matrix(-3.4384 0 0 3.4353 106.341 996.41)"/><path stroke="#000" stroke-linejoin="round" stroke-linecap="round" fill="none" d="M32.1 17q-2.8 2-6.4 3.2-5.6 1.8-11.6.9-6.6-1-9.8-3.1Q.6 15.7-1 15.3h-.2Q-7 14-8.5 12.8m1-8.8-.2-.2q-.1-.4.3-2.5l.5-2Q-2.2.8 1.4 1.1h1Q3.7-.2 7 0q2.3.2 3 1.2.4.5 1.1 2.3l.5 1M-7.6 4q.8.7 5.7 1.8l3 .7Q.5 2.7 2.2 1M1 6.5q3.3.5 4.5 0" data-rand=".9" transform="matrix(-3.4384 0 0 3.4353 106.341 996.41)"/><path stroke="#666" stroke-width=".5" stroke-linejoin="round" stroke-linecap="round" fill="none" d="m5.8 7 5 2.7q5.3 2.8 7 3.1l.6.8q.4.8-.6 1.5l-19.7-2.8.7 3m-.7-3-1-3q-.5-1-2.6-2.6l-2-1.4" data-rand=".7" transform="matrix(-3.4384 0 0 3.4353 106.341 996.41)"/><path stroke="#666" stroke-width="1.5" stroke-linejoin="round" stroke-linecap="round" fill="none" d="M10.4 10.7q.6-1.3 1.7-2.3 2.3-2 5.2-1m-3.7 4.4q.5-1.1 1.5-2 2-1.9 4.8-1M8.1 9q.4-1.3 1.5-2.4 2.1-2 5.3-.5m-9.4.5q.7-1 1.8-1.8 2.5-1.6 4.9-.5m4.1 9.1q.4-1.2 1.4-2.2 2-2 5-1" data-rand=".1" transform="matrix(-3.4384 0 0 3.4353 106.341 996.41)"/></g><g class="c21"><path fill="#fff" d="M-4.2 1054.8q9.6 6.9 22.2 11 19.4 6.2 40 3.1 22.6-3.4 33.7-10.7 12.4-7.9 18-9 .4-.2 1-.2 19.5-4.6 24.7-8.4-.3 5.9-.9 10l-.5 2.7q-2.9 2.5-10.1 4-.9.3-12.4 2-5.5.8-14 6.3l-12.8 8.4q-15.5 8.3-31.8 8.6-18 .4-34.6-4.8-13.2-4.1-18.5-8.9l-.2-.2-1.4-2.2q-.8-1.5-1.4-3.6l-.3-2.2-.7-5.9Z" data-rand=".4"/><path stroke="#000" stroke-linejoin="round" stroke-linecap="round" fill="none" d="m32.1 17-.1 1.7-.1.7-.4 1-.4.7H31q-1.6 1.4-5.4 2.6-4.9 1.5-10 1.4-4.8-.1-9.3-2.5l-3.8-2.5q-2.4-1.6-4-1.8l-3.6-.6q-2.1-.4-3-1.1l-.1-.8-.3-3" data-rand=".9" transform="matrix(-3.4384 0 0 3.4353 106.341 996.41)"/><path stroke="#000" stroke-width=".5" stroke-linejoin="round" stroke-linecap="round" fill="none" d="M-8.4 12.8Q-7 14-1.2 15.3h.3q1.6.4 5.2 2.7 3.2 2.1 9.8 3.1 6 .9 11.6-.9 3.7-1.2 6.4-3.2" data-rand=".4" transform="matrix(-3.4384 0 0 3.4353 106.341 996.41)"/></g></g><g class="body"><g class="c5"><g class="tb"><path fill="#252326" d="M73 551.4q16.6-16.8 40.3-17 23.5 0 40.5 16.4 16.6 16.8 17 40.3 0 23.5-16.5 40.4-16.7 16.8-40.3 17-23.7.2-40.6-16.4-16.8-16.8-17-40.3 0-23.6 16.5-40.4Z" data-rand=".2"/><use stroke-linecap="round" stroke-miterlimit="1" data-rand=".2" transform="matrix(-3.4051 -.119 -.119 3.4006 113.114 591.947)" xlink:href="#reuse-12"/></g><g class="ta"><path fill="#252326" d="M77.3 777.4q11.7-11.8 28.2-12 16.5 0 28.4 11.6 11.7 11.7 12 28.2 0 16.5-11.6 28.4-11.6 11.8-28.2 12-16.5 0-28.6-11.6-11.7-11.7-11.8-28.2 0-16.7 11.6-28.4Z" data-rand=".1"/><use stroke-linecap="round" stroke-miterlimit="1" data-rand=".9" transform="matrix(-3.4051 -.119 -.119 3.4006 105.634 805.675)" xlink:href="#reuse-14"/></g><path fill="#252326" d="M56.6 589.5q7.3-3.4 18.1-6.6 21.6-6.2 39-5 17.8 1 39.2 8.5 10.6 3.6 17.8 7-.6 11-3.5 32.1-3.2 22.7-4 33.4-1.8 28.5-5.3 57.2l-4 29.3q-1.6 18.2-8 61.7l-11.7 6.4q-15 6.1-30.7 5.7-16-.4-28.8-7.8l-9.4-7.1q-2-18.5-2.3-42.2l-3-60.5q-2.8-56.6-3.4-112.1Z" data-rand=".5"/><use stroke-linecap="round" stroke-miterlimit="1" data-rand=".3" transform="matrix(-3.4051 -.119 -.119 3.4006 113.114 591.947)" xlink:href="#reuse-15"/></g></g><g class="body"><g class="c5"><path fill="#252326" d="M66 803.6q26.4-4 39.7-4.8 21.8-1.5 39.6 1 7.7 49.9 5.3 63.5-2.7 14.8-9.9 111.3l1.2 14.2-13.8 5.4q-16.3 5.4-29.3 5.3-13-.4-22.6-4-5.1-1.6-7.2-3.3l4-16.7-7.2-94.5q-.4-5.8.2-77.4Z" data-rand=".3"/><path stroke="#000" stroke-linecap="round" stroke-miterlimit="1" fill="none" d="M-11.7-2q-2.3 14.8-1.5 18.9.8 4.4 2.9 32.8l-.3 4.1 4 1.6Q-1.8 57 2 57q3.8-.1 6.7-1.2 1.5-.5 2-1l-1.1-4.9 2.1-27.8.1-11.8Q11.8 0 11.6-1" data-rand=".6" transform="matrix(-3.4072 0 0 3.4006 105.654 805.803)"/></g></g><g class="body"><g class="c1"><g class="ta"><path fill="#eabfa1" d="M166.4 801q-.7 3.2-.5 6 .5 8.8 6 16.4 7.3 10 19.7 11.8 2 .4 5.7.3 9.2-.3 16.5-5.8 9.8-7.2 11.6-19.6.5-3.4.3-6.2v-2q-.7-7.5-5.6-14.1-7.5-10.1-19.8-12-4.1-.6-6-.4-8.5.4-16.1 5.7-10.1 7.6-11.8 19.8Z" data-rand=".8"/><use stroke-linejoin="round" stroke-linecap="round" data-rand=".8" transform="matrix(3.4006 -.2377 .236 3.4006 195.91 805.505)" xlink:href="#reuse-10"/></g><path fill="#eabfa1" d="m231.7 713.5.9-19.4q.4-10.8 0-21l2.5-74q-47.4-15.8-78.6-1.5-15.4 7-21.5 17.4 10.3 49.5 12.1 60.8.5 1.9 2.7 21.5 2.5 22 6 42 8.3 49 9.9 66.4 8.2 3 19.8 4.3 23 2.5 40.1-7-.2-5.4 6.1-89.5Z" data-rand=".7"/><use stroke-linejoin="round" stroke-linecap="round" data-rand=".2" transform="matrix(3.4006 -.2377 .236 3.4006 181.092 591.947)" xlink:href="#reuse-11"/></g><g class="c5"><g class="tb"><path fill="#252326" d="M219.5 550q-17-16.3-40.5-15.7-23.3.8-39.6 17.8-15.9 17.4-15.4 41 .8 23.5 17.7 39.9 17.1 16.2 40.4 15.6 23.5-.6 39.7-17.8 16-17.4 15.5-40.9-.8-23.7-17.8-40Z" data-rand=".1"/><use stroke-linecap="round" stroke-miterlimit="1" data-rand="0" transform="matrix(3.3666 -.2353 .236 3.4006 181.092 591.947)" xlink:href="#reuse-12"/></g><path fill="#252326" d="M215.4 586.6q-19.2-2.9-34.8-1.6-16.8 1.3-32.2 6-15.4 4.7-24 11 .5 5.5 14.1 43.8 18.6 2.3 40.7 2.2 17-.2 22.1-1.3 6.6-1 16.5-3 12-2.5 16.8-4.2.2-14.2 2.2-29.6 2-12.2 1.3-17-4.4-3.6-22.7-6.3Z" data-rand=".7"/><use stroke-linejoin="round" stroke-linecap="round" data-rand=".8" transform="matrix(3.4006 -.2377 .236 3.4006 181.092 591.947)" xlink:href="#reuse-13"/></g></g><g class="body"><g class="c12"><g class="ta"><path fill="#241609" d="M215.8 992q-1.6-8.2-8.6-12.8-5.3-3.6-11.2-3.4-2 0-4.1.5-8.3 1.7-12.9 8.6-3.4 5.3-3.4 11.1 0 2 .5 4.2 1.7 8.2 8.6 12.7 5.3 3.6 11.3 3.6 2 0 4-.5 8.2-1.6 12.8-8.6 3.7-5.4 3.5-11.4 0-2-.5-4Z" data-rand=".6"/><path stroke="#000" stroke-linecap="round" stroke-miterlimit="1" fill="none" d="M196 975.8q5.9-.2 11.2 3.4 7 4.6 8.6 12.9.5 1.9.5 4 .2 6-3.5 11.3-4.6 7-12.8 8.6-2 .5-4 .5-6 0-11.3-3.6-6.9-4.5-8.6-12.7-.5-2.1-.5-4.2 0-5.8 3.4-11.1 4.6-7 12.9-8.6 2-.5 4.1-.5Z" data-rand=".5" stroke-width="3.4353"/></g><path fill="#241609" d="M274.7 1071q8.4-1.8 13.2-5.4 2.4-1.7 3.8-3.6 4.6-7.4-4.8-16.8l-.4-.2q-5.8-5.3-16.5-10.8l-8-3.6q-6.6-3.1-10-4.9-3-1.3-7.7-4.8l-1.6-1.2-13.5-7.7q-3.8-2-8-7.2t-5-9h-40.6q-.4 2.6-1.7 7.3-1.6 5.8-3 16.8l-.1 1.7-.2 2q-.7 7-.5 12.8.3 5.1 3.8 8.6l1.8 1.7q1.6 1 5.7 2 6 1.4 8 2.1 7.1 2.4 12.8 6 3.4 2.3 10.6 7.6 6.2 4.5 13 7.2 2.8 1.4 6 2.4 9 2.6 21.4 1 3.3-.3 21.5-4Z" data-rand="0"/><path stroke="#000" stroke-linecap="round" stroke-miterlimit="3" fill="none" d="M216.3 995.9q.7 3.7 5 8.9 4 5.1 7.9 7.2l13.5 7.7 1.6 1.2q4.6 3.5 7.7 4.8 3.4 1.8 10 4.9l8 3.6q10.7 5.5 16.5 10.8l.4.2q9.4 9.4 4.8 16.8-1.4 1.9-3.8 3.6-4.8 3.6-13.2 5.3-18.2 3.8-21.5 4.1-12.4 1.6-21.5-1-3-1-6-2.4-6.7-2.7-12.9-7.2-7.2-5.3-10.6-7.6-5.7-3.6-12.9-6-1.9-.7-7.9-2-4.1-1-5.7-2.1l-1.8-1.7q-3.5-3.5-3.8-8.6-.2-5.8.5-12.9l.2-1.9.1-1.7q1.4-11 3-16.8 1.3-4.7 1.7-7.2" data-rand=".5" stroke-width="3.4353"/><path stroke="#160d05" stroke-width="1.03059" stroke-linecap="round" stroke-miterlimit="3" fill="none" d="M181.6 998.3q.3 2.2-3 8.5-2 4.2 2.8 7.3" data-rand="0"/></g></g><g class="body"><g class="c1"><path fill="#eabfa1" d="M187.3 801.2q-12 .8-21.2 3 0 1.6-.9 7.9-1.7 10.2-2.5 17.1-2.9 21.1-.2 43.4 1.7 13 5.8 31.4 1.9 9 4.2 37.8 3 32.6 3.3 52.7 13.4 4 28.2 2 7.3-1 12-2.9l7.7-141.4 1.2-17.4q1-15 .9-29.2-14.3-6.3-38.5-4.4Z" data-rand=".1"/><path stroke="#000" stroke-linejoin="round" stroke-linecap="round" fill="none" d="M225.8 805.6q.1 14.3-.9 29.2l-1.2 17.4-7.6 141.4m-40.3.9q-.4-20-3.3-52.7-2.3-28.7-4.2-37.8-4-18.3-5.8-31.4-2.7-22.3.2-43.4.8-7 2.5-17.1.9-6.3.9-7.9" data-rand=".3" stroke-width="3.4006"/></g></g><g class="body"><g class="c6"><path fill="#fff" d="M304 1046q-30.5-15.1-36.9-18-16-7.8-33.6-20.5-2.5-5.8-3.6-7.7-2.5-3.4-10.7-4-10.8-.4-16 4.2l-3.2-.2q-11.9-.9-28.5-6.2l-1.6 6.7q-1.5 7.2-1 8.8 0 .3.3.5l-2.7 16.3q-1 14.3.7 24.4-.6-4.2-.9-10.1 5.2 3.8 24.7 8.4.6 0 1 .2 5.6 1.2 18 9 11 7.3 33.6 10.7 20.6 3.1 40-3 12.6-4.2 22.2-11v-.2q0-3-.9-5.9l-.8-2.4Z" data-rand="0"/><path stroke="#000" stroke-width="3.09177" stroke-linejoin="round" stroke-linecap="round" fill="none" d="M233.5 1007.5q17.5 12.7 33.6 20.5 6.4 2.9 37 18l.8 2.4q.9 3 .9 5.9v.1M166 1040.2q-.2-6.6.4-14.3l2.8-16.2" data-rand="1"/><path stroke="#000" stroke-linejoin="round" stroke-linecap="round" fill="none" d="M305.8 1054.4q-9.6 6.9-22.2 11-19.4 6.2-40 3.1-22.5-3.4-33.7-10.6-12.3-8-17.8-9.1l-1-.2q-19.6-4.6-25-8.4m3.2-30.5-.4-.6q-.5-1.6 1-8.8l1.6-6.7q16.6 5.3 28.5 6.2l3.3.2q5.1-4.6 15.9-4.1 8.2.5 10.7 4 1.1 1.8 3.6 7.6l1.5 3.8m-65.7-1.6q2.7 2.3 19.5 6.4 5.6 1.4 10 2.2-1.6-13 4.5-18.3m-4.5 18.3q11.4 2 15.6.2" data-rand=".9" stroke-width="3.4353"/><path stroke="#666" stroke-width="1.71765" stroke-linejoin="round" stroke-linecap="round" fill="none" d="m215 1019.9 17.3 9.5q18.3 9.6 24.2 10.6l1.9 2.6q1.3 3-2 5.1l-67.6-9.2q1.2 4.2 2.3 10m-2.3-10q-2-7.3-3.6-10.5-1.6-3.3-8.8-8.8l-6.7-5" data-rand=".4"/><path stroke="#666" stroke-width="5.15295" stroke-linejoin="round" stroke-linecap="round" fill="none" d="M231.2 1032.6q2-4.1 5.7-7.5 7.7-7 17.7-3.7m-12.4 15.2q1.4-3.8 4.8-7 6.9-6.4 16.9-3.2m-41 .4q1.6-4.7 5.2-8.3 7.4-7.2 18.2-2m-32.3 1.7q2.5-3.4 6.6-6 8.2-5.5 16.6-2m14.1 31.5q1.4-4 4.8-7.4 6.9-6.8 17-3.6" data-rand=".4"/></g><g class="c21"><path fill="#fff" d="M305.8 1054.4q-9.6 6.9-22.2 11-19.4 6.2-40 3.1-22.5-3.4-33.7-10.6-12.3-8-17.8-9.1l-1-.2q-19.6-4.6-24.8-8.4.3 5.9.9 10.1l.5 2.6q2.9 2.6 10.1 4.1l12.4 1.9q5.5.9 13.9 6.3l12.9 8.5q15.4 8.2 31.7 8.6 18 .3 34.6-4.9 13.2-4 18.5-8.9l.2-.2 1.4-2.2q.8-1.4 1.3-3.6l.4-2.2.7-5.9Z" data-rand=".6"/><path stroke="#000" stroke-linejoin="round" stroke-linecap="round" fill="none" d="m305.8 1054.4-.6 5.9-.5 2.2q-.5 2.2-1.3 3.6l-1.4 2.2-.2.2q-5.3 4.8-18.5 9-16.7 5.1-34.6 4.8-16.3-.4-31.7-8.6l-13-8.5q-8.3-5.4-13.8-6.3l-12.4-1.9q-7.2-1.5-10.1-4.1l-.5-2.6q-.6-4.2-.9-10.1" data-rand=".3" stroke-width="3.4353"/><path stroke="#000" stroke-width="1.71765" stroke-linejoin="round" stroke-linecap="round" fill="none" d="M166.3 1040.2q5.2 3.8 24.8 8.4l1 .2q5.5 1.2 17.8 9 11.2 7.3 33.7 10.7 20.6 3.1 40-3 12.6-4.2 22.2-11" data-rand=".6"/></g></g><g class="body"><g class="c5"><g class="tb"><path fill="#252326" d="M219.9 550q-17.2-16.3-41-15.7-23.4.8-39.9 17.9-16 17.3-15.6 40.9.8 23.5 17.8 40 17.4 16.1 41 15.5 23.6-.6 40-17.8 16.2-17.4 15.6-41-.7-23.6-18-39.9Z" data-rand=".8"/><use stroke-linecap="round" stroke-miterlimit="1" data-rand=".1" transform="matrix(3.4006 -.2377 .236 3.4006 181.092 591.947)" xlink:href="#reuse-12"/></g><g class="ta"><path fill="#252326" d="M223.3 776.4q-12-11.4-28.6-11-16.6.5-28 12.6-11.3 12-11 28.6.6 16.5 12.5 28 12 11.5 28.6 11T225 833q11.3-12 10.8-28.6-.5-16.7-12.5-28Z" data-rand=".7"/><use stroke-linecap="round" stroke-miterlimit="1" data-rand=".1" transform="matrix(3.4006 -.2377 .236 3.4006 195.922 805.675)" xlink:href="#reuse-14"/></g><path fill="#252326" d="M237.5 587.5q-7.4-3-18.3-5.9-21.8-5.5-39.3-3.8-17.6 1.8-38.7 10-10.5 4-17.6 7.7 1 10.8 4.6 32 4 22.5 5 33.2 2.9 28.5 7.4 57l5 29.3q2.2 18.1 10 61.5l12 6q15.1 5.6 31 4.7 16-1 28.4-8.9l9.2-7.4q1.3-18.6.8-42.3l1-60.7q.8-56.8-.5-112.4Z" data-rand=".6"/><use stroke-linecap="round" stroke-miterlimit="1" data-rand="0" transform="matrix(3.4006 -.2377 .236 3.4006 181.092 591.947)" xlink:href="#reuse-15"/></g></g><g class="body"><g class="c5"><path fill="#252326" d="M235.6 803.2q-26.3-3.9-39.6-4.7-21.8-1.6-39.6 1-7.7 49.8-5.3 63.4 2.7 14.8 9.9 111.4l-1.2 14 13.8 5.5q16.3 5.5 29.2 5.3 13.1-.4 22.6-4 5.1-1.6 7.2-3.3l-4-16.7 7.2-94.5q.3-5.8-.2-77.4Z" data-rand=".7"/><path stroke="#000" stroke-linecap="round" stroke-miterlimit="1" fill="none" d="M156.4 798.5q-7.8 50.3-5.3 64.4 2.7 14.8 9.9 111.4l-1.2 14 13.8 5.5q16.3 5.5 29.2 5.3 13.1-.4 22.6-4 5.1-1.6 7.2-3.3l-4-16.7 7.2-94.5q.3-5.5.3-40.2-.1-34.8-.5-38.2" data-rand="1" stroke-width="3.4006"/></g></g><g class="body"><g class="c1"><path fill="#eabfa1" d="M260.6 356.8q-25.7-19-29.8-49.7-2.2-15.3.9-26.9-4.8-.6-30.6-6.4l-22.3-5H121l-22.3 5q-25.8 5.8-30.6 6.4 10.9 39-7.1 62-5.6 7-13.5 11.8l-6.6 3.3Q51 375 70 393q38.3 35.5 84.6 35.5 46 0 80.8-35.9 17.3-17.8 25.3-35.8Z" data-rand=".4"/><path stroke="#000" stroke-linecap="round" stroke-miterlimit="1" fill="none" d="M68.1 280.2q4.8-.6 30.6-6.4l22.3-5m57.8 0 22.3 5q25.8 5.8 30.6 6.4" data-rand=".9" stroke-width="3.4006"/><path fill="#eabfa1" d="M232.7 560.1q-1.7-9.5.5-41.1 2.4-32.5 6.7-56.7 1.3-7.3 12-60.5 8-38.6 7.8-44.7H40q-.2 4.6 9.7 39.8 11 39 13.3 56 6.2 47 2.3 106.7 46.4 14.5 111.6 9 32.6-2.9 56-8.5Z" data-rand=".9"/><path stroke="#000" stroke-linejoin="round" stroke-linecap="round" fill="none" d="M259.7 357q.2 6.2-7.8 44.8-10.7 53.2-12 60.5-4.3 24.2-6.7 56.7-2.2 31.6-.5 41.1m-167.5-.5q4-59.7-2.3-106.6-2.3-17.2-13.3-56.1-9.9-35.2-9.7-39.8" data-rand=".7" stroke-width="3.4006"/><path fill-opacity=".1" d="M143.8 536.6q-.9 7.7 4.7 8.4 5.5.8 2-7.7-2-4-4.8-8.5-1.6 3.8-2 7.8M153 421q8.5-1.4 19.9 1.3 17.5 4.3 25.3 5.3 13.8 1.5 21.2-7 3.8-4.4 4.8-9-16.1 9.2-26.9 8.8-5.7-.1-28-6.4-15-4.4-27.9-.2-21.6 7-23.6 7.2-11.8 1.5-24.7-2-6.4-1.8-10.5-3.8 14 14.4 37.9 12.4 13-1.2 32.5-6.6Z" data-rand=".5"/></g></g><g class="body"><g class="c5"><path fill="#252326" d="M215.7 596q13-3.8 22.3-4.6 1.7-10.7.8-21.8-1.3-17-6-36.4-34 1.6-84.6 1.4-53-.3-83.3-2.5-5.3 15.8-6 22.6-2.3 17.3-3 36.7 12.2.7 26.2 3.2 19.5 3.8 25.6 9.2Q121.5 616 128 635q0 .4 9 4.8 5 2.2 12.4 2 7.3-.3 11.4-2.7 5.4-3.2 6-5.3 11.5-14.2 21.4-23.8 8.5-8.3 27.5-14Z" data-rand=".6"/><path stroke="#000" stroke-linejoin="round" stroke-linecap="round" fill="none" d="M238 591.4q1-14-.4-27.9-1.8-18.5-4.4-29.7-33.8 1.5-84.5 1.3-53-.3-83.3-2.5-5.1 13-6.6 22.7-3.3 17-3 36.1" data-rand=".8" stroke-width="3.4006"/><g class="ta"><path fill="#252326" d="M168.3 632.4h-.2l.9-1.2q-9.2-3-21.1-3-12 0-21.3 3 1.4 3.9 5 12 4 4.1 14.7 3.8 5.8-.3 10.7-1.7 5.7-1.9 7-4.4 1.2-4 3.8-7.8l.5-.7Z" data-rand=".8"/><path stroke="#000" stroke-linejoin="round" stroke-linecap="round" fill="none" d="M131.5 643.3q4.1 4 14.8 3.7 5.1-.2 10.7-2 5.3-2 7.7-4.1" data-rand=".3" stroke-width="3.4006"/><path fill-opacity=".2" d="m138.9 599 10.7 2.6q12.7 2.2 21.2 2.9l-21.2-6.8q-11-3.8-27.6-8.9l-21.6-6.8q2 3.4 7.5 6.8 9.5 5.5 31 10.2m55.4-21q-13.3 1.7-42.9-2.6l-1.8-.2L119 570q-4-.5-7.9-1.6.9.9 2.3 1.6l2.5 1.5 9 4q10.7 3.8 24.7 4.7 6.8.7 14.4.5 5.6 0 10.6-.5 9.8-.5 19.7-2.2Z" data-rand=".8"/><path stroke="#161517" stroke-width="2.0403599999999997" stroke-linejoin="round" stroke-linecap="round" fill="none" d="m213 536.6 3.4 24.2q1.9 12.4 3 14.3 3.3 4.4 9.7 6 3.6.6 8 0m-178.8-5.7q9.1 2.6 14.6-1.5 2.4-1.5 5.3-14.3 1.5-6.6 4.9-25.8m54.7 3.4v66.6q0 9.4.7 12 1.2 2.3 3.2 5.4 2.3 3.4 3.8 4.7 1.9 1.5 3.7 1.9-2.5-16.7-2.2-36.7l1.9-53.3m.3 90q1.6 10 4.3 18.2" data-rand=".2"/></g></g></g><g class="body"><g class="c4"><path fill="#fff" d="M175.2 277.9q-13 8.5-24.4 8.1-11.6-.3-23.7-6.8-9.3-5-14.8-10.9-2.9.5-17.3 4.5-5.5 1.1-16 4.4-9 2.9-10.9 3-21.6 26.2-26.5 54.3-1.7 8.8-1.4 16.6l.7 6.2q19.2 24 56.3 35.8 74.1 23.8 163.4-36.3 6.3-25.2-10.7-53.4-8.5-14.1-18.2-23.2-1.9-.1-10.6-2.9-10-3-15.4-4.2l-18.7-5q-5.5 5.5-11.8 9.8Z" data-rand=".9"/><path stroke="#000" stroke-linecap="round" stroke-miterlimit="1" fill="none" d="M231.7 280.2q-1.9-.1-10.6-2.9-10-3-15.4-4.2l-18.7-5q-5.5 5.5-11.8 9.8-13 8.5-24.4 8.1-11.6-.3-23.7-6.8-9.3-5-14.8-10.9-2.9.5-17.3 4.5-5.5 1.1-16 4.4-9 2.9-10.9 3" data-rand=".5" stroke-width="3.4006"/><path fill="#fff" d="M250.4 459.3q-.5-5.3 5.3-49.8 5.6-42.5 8.3-56.8L39.6 354q2.3 13.5 7.4 58.5 5.1 46 4.6 51.2L55 498v9q-.2 7.5-1.6 10.8l-3.9 8.8q-1.9 4.3-1.9 5.8-.1.7 3 5.3 2.8 4.7 2.8 5-.1.7-3.7 3.1-3.6 2.2-4 3l.2 3.8q.4 3 .7 3.6.4 1.7-1.7 4.8-1.7 3-1.3 4.2 1.5 5.1 47.4 11 40.6 5.5 58.2 5.5h.3q11.7 0 55-7 42.3-7 44.3-8.5 4.4-3.7 5.4-8.5-.1-1.2-3.9-3.2-3.4-2-3-3.7 4.6-5 4.2-8.7-.2-2.2-3.9-8.7-3.7-6.4-3.7-7 0-13.9.3-17.5l6.3-49.6Z" data-rand=".8"/><path fill-opacity=".1" d="M54.9 507q-.2 7.5-1.6 10.8l-3.9 8.8q-1.9 4.3-1.9 5.8-.1.7 3 5.3 2.8 4.7 2.8 5-.1.7-3.7 3.1-3.6 2.2-4 3l.2 3.8q.4 3 .7 3.6.4 1.7-1.7 4.8-1.7 3-1.3 4.2 1.5 5.1 47.4 11 40.6 5.5 58.2 5.5-17.9-1.7-45.8-9-14-3.7-24.3-7.1 15.1 3.2 37.6 3.7 11.4.2 19.4-.5-30.1-7.2-54.1-15.8-6.5-2.4-8.8-10.4-1.6-5.1-4-20.4 0-.5-4-5.3-4.3-5.8-6.3-12-4-11.6-4.8-15.9l.9 9v9m193.8 28.5q-7.3 7.3-22.6 12.4-14.1 4.7-31.8 6.8-8.7 1-64 .6 17.6 5.5 38.5 7.2 14.6 1.5 39.8 1.2-8.5 2.2-27.2 9.5-16.2 6.4-24.4 8 18.8-1.7 54.8-7.7 35.4-6 36.9-7.3 4.4-3.7 5.4-8.5-.1-1.2-3.9-3.2-3.4-2-3-3.7 4.6-5 4.2-8.7-.3-2-2.7-6.6M190 444.8q15.8-18.3 21.8-34.1-18.9 29-62.4 60-21.8 15.4-39.8 25 49-13.8 80.4-50.9m60.4-5.6q.8-19.5 4-36.2l-22.2 88q-1.2 19.6-6.8 27.1-2.7 5.6-4.4 8.5-3.3 5.5-11.4 9.5-18.5 9.6-28.2 10.7 15-1.3 34.5-7.4L228 536q10.6-2.8 17.7-5.5l-2-4q0-14 .3-17.6l6.3-49.6q-.7-5.5 0-20Z" data-rand=".8"/><path stroke="#000" stroke-linejoin="round" stroke-linecap="round" fill="none" d="M39.6 354q2.3 13.5 7.4 58.5 5.1 46 4.6 51.2L55 498v9q-.2 7.5-1.6 10.8l-3.9 8.8q-1.9 4.3-1.9 5.8-.1.7 3 5.3 2.8 4.7 2.8 5-.1.7-3.7 3.1-3.6 2.2-4 3l.2 3.8q.4 3 .7 3.6.4 1.7-1.7 4.8-1.7 3-1.3 4.2 1.5 5.1 47.4 11 40.6 5.5 58.2 5.5h.3q11.7 0 55-7 42.3-7 44.3-8.5 4.4-3.7 5.4-8.5-.1-1.2-3.9-3.2-3.4-2-3-3.7 4.6-5 4.2-8.7-.2-2.2-3.9-8.7-3.7-6.4-3.7-7 0-13.9.3-17.5l6.3-49.6q-.5-5.3 5.3-49.8 5.6-42.5 8.3-56.8" data-rand=".5" stroke-width="3.4006"/></g><path fill-opacity=".2" d="M107.4 459.5q.7-2.6-4.8-3.1h-5.4Q72.2 514.9 71 519q-1 4.2 9.7 9.7l26.7-69.2m93-3.1q-5.3.5-4.6 3l26.5 69.3q11-5.5 9.7-9.7-1.2-4.1-26-62.6-2.9-.2-5.6 0Z" data-rand=".3" class="c4"/></g><g class="body"><g class="c1"><path fill="#eabfa1" d="M179.2 265.2q-4.8-1.3-13.5-1.3H139q-8.5 0-17.3 1.2l-17.2 4q31.3 19.4 65 12.3 16.8-3.4 27.3-10.9-14-4.6-17.5-5.3h-.1Z" data-rand=".4"/><path stroke="#000" stroke-linejoin="round" stroke-linecap="round" fill="none" d="m121.7 265-17.2 4.1q31.3 19.4 65 12.3 16.8-3.4 27.3-10.9-14-4.6-17.5-5.3" data-rand=".1" stroke-width="3.4006"/></g></g><g class="body"><g class="c31"><path fill="#343434" d="m68.1 280.2.5-.1h-.1l-.4.1m33.3-9.1-.3.1-32.5 8.9-.5.1-9.2 19q-5 10.6-12 29.2-6.7 18.5-8.5 26.8 3.1 17.2 6.4 58.2 3.3 41.8 2.7 67.3l-.1 6.8q-.2 7.8-.5 11.7-.4 7.4-1.7 10.4-3 8.2-1 13.8l3 10q-.3 2.2-2.7 5-2.4 2.8-2.7 4.5-.4 4 2.7 11.3 1.9 4.4.7 7.6-.5 1.7-1.4 3.2 1.4 5.1 32.1 11.6 28.1 5.7 42.6 5.8v-.9l.1-1.8q.4-56.3-1.8-191.5L115 357l-.2-2.5q-6.1-19.8-10-47.6-2.8-20.1-3.5-35.7m130.1 9.1-10.4-2.9-21.7-5.9v.3q-.4 13.6-3 32.3-3.8 26.3-10.4 48l-.2 5-1.9 31.2q-2 135.2-1.7 191.5v1.3q8 .4 18.9-1.3l7.8-1.4h.5q15.3-3 24.5-6.1 10.5-3.8 13-5.6 5.7-4.3 6-7.3-.1-.7-1.1-3.6-.7-2-.4-4 .2-1 3.6-4.9 2.2-2.5 1.9-4.5-.6-2.6-4.1-4.8-4-2.6-4.1-4.8-.2-.8 2.7-4.4 3-3.7 3-5.6 0-2.5-2.8-13.8-.7-3-.4-16.3l.7-35.4V451.8l.5-14.6q.5-16 11.6-84.5l-.9-2.6q-5.6-16-9.6-26-5.5-13.6-12.8-27l-9.2-16.9Z" data-rand=".2"/><path stroke="#000" stroke-linejoin="round" stroke-linecap="round" fill="none" d="M199.5 271.4v.4q-.5 13.5-3.2 32.2-3.7 26.3-10.3 48.1l-.2 4.8-1.9 31.3q-2 135.2-1.7 191.5v1.4q8 .3 19-1.4l7.7-1.3.5-.1q15.3-3 24.5-6.1 10.5-3.8 13-5.6 5.7-4.3 6-7.3-.1-.7-1.1-3.6-.7-2-.4-4 .2-1 3.6-4.9 2.2-2.5 1.9-4.5-.6-2.6-4.1-4.8-4-2.6-4.1-4.8-.2-.8 2.7-4.4 3-3.7 3-5.6 0-2.5-2.8-13.8-.7-3-.4-16.3l.7-35.4V456M47.4 487.5q-.2 7.8-.5 11.7-.4 7.4-1.7 10.4-3 8.2-1 13.8l3 10q-.3 2.2-2.7 5-2.4 2.8-2.7 4.5-.4 4 2.7 11.3 1.9 4.4.7 7.6-.5 1.7-1.4 3.2 1.4 5.1 32.1 11.6 28.1 5.7 42.6 5.8v-.8l.1-2q.4-56.2-1.7-191.4L115 357l-.1-2.5q-6.2-19.8-10.2-47.6-2.7-20.1-3.4-35.6" data-rand=".8" stroke-width="3.4006"/><path stroke="#000" stroke-linecap="round" stroke-miterlimit="1" fill="none" d="m231.6 280.2-10.5-2.9-21.6-5.9m52.4 184.5v-4.1l.5-14.6q.5-16 11.6-84.5m-162.6-81.5h-.3l-32.5 9h-.4m-29.8 75q3.1 17.2 6.4 58.2 3.3 41.8 2.7 67.3l-.1 6.8m21.2-207.3h-.4" data-rand=".7" stroke-width="3.4006"/><path fill-opacity=".1" d="M39.2 360v.2q2.8 17.7 5.6 53.2 3.3 41.8 2.7 67.3v.7l-.1 4.6v1.5q-.2 7.8-.5 11.7-.2 4.3-.9 7-.3 2.2-.8 3.4-2.5 7.2-1.6 12.3l.5 1.5 1.6 5h.1l1.7 2.3-.6 1.7.3 1q-.3 2.2-2.7 5-.3.4-.7.6l-2 5q0 3.8 2.7 10.2 1.9 4.4.7 7.6l-.2.4q-.4 1.4-1.2 2.8.8 2.8 10.4 6 8 2.7 21.7 5.6 7.8 1.6 14.5 2.7h1.9l2.5.4q-23.6-9.6-34.5-29.1-5.3-9.9-6-17.9l48.2 16.4q-26.9-27.2-30.1-35.2-1.6-3.6-8.5-43.2l-6.7-39 19.6 21.6q-15.3-28.9-21.8-43-5.2-11.5-15.8-50.3m224.1-3.2.4-2.3q-1.7 6.5-8.5 25-7.2 19-11.3 28-6.4 14-21.9 43l19.7-21.7-1 40.3q0 2.4-3 15.7-3 12.6-3.8 15-4 11-21.8 29.2-8.8 9.2-16.8 16l41.5-13 5 2.3q1 4.7-2 14-3.7 11.9-13.2 24.2l2.7-.8q17-5.3 23-10.7.5-.9.6-1.7-.1-.7-1.1-3.6-.7-2-.4-4 .2-.8 3-4.2l.6-.7q2.2-2.5 1.9-4.5-.4-1.4-1.6-2.8-1-1-2.5-2l-.2-.2q-3.8-2.4-4-4.6 0-.8 2.8-4.4.6-.7 1-1.5l2-5q-.2-1.6-1-4.9-.6-3.2-1.8-8-.3-1-.4-3.4-.2-4.3 0-12.9l.6-26.9.1-8.1v-5.8l.5-14.6v-.4q.6-15.6 11-80Z" data-rand=".8"/><path fill="#343434" d="M49 528.8q5.2 3.8 15.4 5 27.4 2.7 29.6-3.6 1.3-4.4 1.5-46.4-1 1.3-10.5 3.4-10.4 2-14.7.8-1.5-.5-12.7-2-4.6-.7-6.7-1.6-6.6 35.6-6.2 38.5.5 3.2 4.2 6m24.3-59.6q-7.3-.2-20.7-2.4l-1.7 6.7q-1.7 7.1-1.6 9.1 0 .9 1.7 1.7 2 .9 6.7 1.6 11.2 1.5 12.7 2 4.3 1.2 14.7-.8 9.5-2 10.5-3.4.8-1.7 1.7-14.8-16.7.7-24 .3M97.7 420l.5-14.1L55 408l1.4 13.6 19.5 2.9 21.8-4.6m.5-41.3L55 380.9l1.4 13.6 19.5 2.9 21.8-4.6.5-14.1m116.3 109q-9.3-2-10.4-3.4l.2 20.2q.4 23 1.2 25.7 2.2 6.4 28.7 3.4 9.9-1 15-4.8 3.7-2.9 4-6 .4-2.8-5.9-37.8v-.2q-2 .8-6.4 1.5-11.4 1.7-12.4 2-4.1 1.2-14-.6m33.2-13.6-1.7-6.5q-13.1 2-20.3 2.4l-23.3-.3.6 6.6q.6 7 1.1 8 1 1.3 10.4 3.4 9.9 1.8 14 .7 1-.4 12.4-2 4.4-.8 6.4-1.6 1.7-.9 1.7-1.7.2-2-1.3-9Z" data-rand=".9"/><path stroke="#000" stroke-width="1.7003" stroke-miterlimit="10" fill="none" d="M247.3 484.8q1.7-.9 1.7-1.7.2-2-1.3-9l-1.7-6.5q-13.1 2-20.3 2.4l-23.3-.3.6 6.6q.6 7 1.1 8 1 1.3 10.4 3.4 9.9 1.8 14 .7 1-.4 12.4-2 4.4-.8 6.4-1.6v.2q6.3 35 6 37.9-.4 3-4.1 6-5.1 3.7-15 4.7-26.5 3-28.7-3.4-.8-2.7-1.2-25.7l-.2-20.2m-149-103.4 1.3 13.6 19.5 2.9 21.8-4.6.5-14.1-43.2 2.2Zm0 27.2 1.3 13.6 19.5 2.9 21.8-4.6.5-14.1L55 408Zm-4.2 76.3q-1.7-.8-1.7-1.7-.1-2 1.6-9.1l1.7-6.7q13.4 2.2 20.7 2.4 7.3.4 24-.3-.9 13-1.7 14.8-.2 42-1.5 46.4-2.2 6.3-29.6 3.6-10.2-1.2-15.5-5-3.7-2.7-4.2-6-.4-2.8 6.2-38.4 2 .9 6.7 1.6 11.2 1.5 12.7 2 4.3 1.2 14.7-.8 9.5-2 10.5-3.4" data-rand=".6"/><path stroke="#1f1f1f" stroke-width="1.0201799999999999" stroke-miterlimit="10" fill="none" d="M249 527q.2 1.1-4.6 1.1l-6.8-.1q-4.4.1-13.6-.2-9.1-.3-13.6-.7-2-5-2-18.8l1-10.6q.9-7.1-.3-10.2M49 527q-.2 1.3 5 1.3l6.7-.3q4.8.1 14-.2 9.5-.3 14-.8 1.6-3.6 2.1-9.2.2-2.7.2-9.9l-1-10.7q-.9-7 .3-10.2" data-rand=".2"/><path stroke="#1f1f1f" stroke-width="1.7003" stroke-linejoin="round" stroke-linecap="round" fill="none" d="M263.3 352q-6.4-1.5-18.5-3.7Q232 346 229 346l-41-1.7m71-3.4q-24-5-27.8-5l-40.1-2m65.8 209.4q-7.7 3-29.6 6.8-23.8 4-46.4 5.8m-141.7-204q30.1-5.9 34.4-5.9l38.4-2m-69.2-3q24.6-4.6 28.7-5.2l38-2m-68 209.5q9.8 3 24.6 6.1 29.6 6.1 53.9 6.5" data-rand=".3"/></g><g class="c33"><path fill="#373634" d="M79.5 415.4q0-3.4-2.9-3.4-1.2 0-2 1-.9 1-.9 2.4t.9 2.4q.8 1 2 1 3 0 3-3.4m-20.1 59.9q-.7-1-2-1-1.1-.2-1.8.8-.8 1-.8 2.4-.2 1.3.6 2.4.7 1 2 1.1 1.1 0 1.8-1 .8-1 .8-2.4.2-1.3-.6-2.3m29.9 1q-.7-1-1.9-1.2-2.5 0-2.9 3.4 0 1.4.9 2.4.6 1 1.8 1 1 .2 2-.9.8-1 .8-2.3.1-1.4-.7-2.4m-9.9-88q0-3.5-2.9-3.5-1.2 0-2 1-.9 1-.9 2.4t.9 2.4q.8 1 2 1 3 0 3-3.4m135 88.4q-1-1-2-.8-2.5 0-2.5 3.4 0 1.3.8 2.4.7 1 2 .8 2.5 0 2.5-3.4 0-1.4-.9-2.4m29-1q-.8-1-1.8-.8-1.2 0-1.8 1-.9 1-.7 2.4 0 3.2 2.7 3.2 1 0 1.9-1 .6-1 .6-2.4-.1-1.4-.8-2.4Z" data-rand=".3"/><path stroke="#000" stroke-width="1.7003" stroke-miterlimit="10" fill="none" d="M239.2 478.2q0 3.2 2.7 3.2 1 0 1.9-1 .6-1 .6-2.4-.1-1.4-.8-2.4-.9-1-1.9-.8-1.2 0-1.8 1-.9 1-.7 2.4Zm-29.1 1q0 1.3.8 2.4.7 1 2 .8 2.5 0 2.5-3.4 0-1.4-.9-2.4-.8-1-1.9-.8-2.5 0-2.5 3.4Zm-130.6-91q0 3.4-2.9 3.4-1.2 0-2-1-.9-1-.9-2.4t.9-2.4q.8-1 2-1 3 0 3 3.4Zm10.6 90.5q0 1.3-.9 2.3-.8 1-1.9.9-1.2 0-1.8-1-.9-1-.9-2.4.4-3.4 3-3.4 1.1.2 1.8 1.2.8 1 .7 2.4Zm-30-1q0 1.3-.8 2.3-.7 1-1.9 1-1.2-.1-1.9-1.1-.8-1-.6-2.4 0-1.4.8-2.4.7-1 1.9-.9 1.2 0 1.9 1 .8 1 .6 2.4Zm19.4-62.3q0 3.4-2.9 3.4-1.2 0-2-1-.9-1-.9-2.4 0-1.3.9-2.4.8-1 2-1 3 0 3 3.4Z" data-rand=".7"/><path fill="#373634" d="M197 540.4q0-1.7-1.2-3T193 536q-1.7 0-2.9 1.2-1.2 1.4-1.2 3 0 1.8 1.2 3t3 1.2q1.6 0 2.8-1.2 1.2-1.2 1.2-3m-1.2-41.2q1.2-1.2 1.2-3 0-1.6-1.2-3-1.2-1.2-2.9-1.2t-2.9 1.2q-1.2 1.4-1.2 3 0 1.8 1.2 3t3 1.2q1.6 0 2.8-1.2m1.5-47.8q0-1.7-1.1-3-1.2-1.3-3-1.3-1.6 0-2.8 1.2-1.2 1.4-1.2 3 0 1.8 1.2 3t2.9 1.2q1.7 0 2.9-1.2 1.1-1.2 1.1-3m.4-45.5q0-1.7-1.2-3-1.2-1.2-2.9-1.2t-2.9 1.2q-1.2 1.3-1.2 3t1.2 3q1.2 1.1 2.9 1.1t2.9-1.2q1.2-1.2 1.2-2.9Z" data-rand=".2"/><path stroke="#000" stroke-width="1.7003" stroke-miterlimit="10" fill="none" d="M197.7 405.7q0 1.7-1.2 3-1.2 1.1-2.9 1.1t-2.9-1.2q-1.2-1.2-1.2-2.9t1.2-3q1.2-1.2 2.9-1.2t2.9 1.2q1.2 1.3 1.2 3Zm-.4 45.6q0 1.7-1.1 2.9-1.2 1.2-3 1.2-1.6 0-2.8-1.2-1.2-1.2-1.2-3 0-1.6 1.2-3 1.2-1.2 2.9-1.2t2.9 1.2q1.1 1.4 1.1 3Zm-.3 44.9q0 1.7-1.2 2.9t-2.9 1.2q-1.7 0-2.9-1.2t-1.2-3q0-1.6 1.2-3 1.2-1.2 3-1.2 1.6 0 2.8 1.2 1.2 1.4 1.2 3Zm0 44.2q0 1.7-1.2 2.9t-2.9 1.2q-1.7 0-2.9-1.2t-1.2-3q0-1.6 1.2-3 1.2-1.2 3-1.2 1.6 0 2.8 1.2 1.2 1.4 1.2 3Z" data-rand=".8"/></g></g><g class="body"><g class="c31"><path fill="#343434" d="M111.3 265.4q-1.2-3.6-1.7-9-6.8-1.7-8.5 1.5-1 2-7 9.2-5.7 6.6-7.6 8.2-3 2.2-5.1 12.5-1.2 5.7-2.4 14.2-.8 4-7.3 17.8-4.6 9.4-2 16.3 1-.5 8.6-6 7.7-5.4 13.3-6.7l5-1.5q3.1-.4 4.8.8 2.8 2 1.4 5.4-1.9 5.3-1.7 6.5l.3 3.2 2.3 2q.8 1 3.4 3 2 1.8 3 3.5 2.2 3.4 3.4 8.4l2 8.8q-2.5-56-3.2-88.7-.1-6.8-1-9.4m98 1.7q-6.2-7.1-7.2-9.2-1.7-3.2-10-1.5-1.9 15.3-2.7 23.5-3.1 30.6-4.1 83.6 1-3.6 4.9-8.8 5.8-8.2 5.8-8.4 1.5-4 3.6-6.6.3-.5 2.2-1.9.3-.3.5-3.2 0-1.2-1.9-6.5-1.4-3.4 1.4-5.4 1.7-1.2 5-.8l5.2 1.5q5.6 1.3 12.9 6.6 7.6 5.6 8.8 6.1 2.4-7-2.2-16.3-6.4-14.1-7.3-17.8-1-8.5-2.2-14.2-2.2-10.3-5.3-12.5-1.8-1.6-7.5-8.2Z" data-rand=".4"/><path stroke="#000" stroke-linejoin="round" stroke-linecap="round" fill="none" d="M192 256.4q8.4-1.7 10.1 1.5 1 2 7.1 9.2 5.7 6.6 7.5 8.2 3 2.2 5.3 12.5 1.2 5.7 2.2 14.2.9 3.7 7.3 17.8 4.6 9.4 2.2 16.3-1.2-.5-8.8-6-7.3-5.4-13-6.7l-5-1.5q-3.4-.4-5.1.8-2.8 2-1.4 5.4 1.9 5.3 1.9 6.5-.2 2.9-.5 3.2-1.9 1.4-2.2 2-2 2.5-3.6 6.5 0 .2-5.8 8.4-4 5.2-5 8.8 1-53 4.2-83.6m-79.8-23.5q-6.8-1.7-8.5 1.5-1 2-7 9.2-5.7 6.6-7.6 8.2-3 2.2-5.1 12.5-1.2 5.7-2.4 14.2-.8 4-7.3 17.8-4.6 9.4-2 16.3 1-.5 8.6-6 7.7-5.4 13.3-6.7l5-1.5q3.1-.4 4.8.8 2.8 2 1.4 5.4-1.9 5.3-1.7 6.5l.3 3.2 2.3 2q.8 1 3.4 3 2 1.8 3 3.5 2.2 3.4 3.4 8.4l2 8.8q-2.5-56-3.2-88.7" data-rand=".8" stroke-width="3.4006"/></g><g class="c32"><path fill="#b3b3ab" d="M91.4 298q3 12.6 1.5 28-.5 9.1-4 28.2-4.8 23.8-5.1 39.2 0 .9 2.2 1 2 0 2-.8.2-14.8 4.8-39.3 3.5-19 4.4-28.4 1.2-16-1.9-29.2-.3-1.9-2.5-1.4-2 .9-1.4 2.7m107.6-1q-2.2 12.6-.3 29 1 8.8 5.1 28.5 5.4 26.9 5.6 40.3.4 1.9 2 1.9h.2q2.4 0 1.9-2.2-.2-14-5.6-40.9-3.8-18.5-4.8-28-1.8-15.6 0-28 .4-2-1.7-2.3-1.8-.5-2.4 1.7Z" data-rand=".2"/><path fill="#b3b3ab" d="M112 251.8q-9.5.5-13.6 5.3-1.9 2.4-2 4.6l-7.4 1-11.5 13.6q-3.8 4.6 2.7 15.6 6.6 11 13 12.6 5.4 1.4 13.5 10.2 4.1 4.4 7.2 8.7l-2-71.6m91.4 5.3q-4-5-13.8-5l-3 71.3 9.3-8.7q7.3-9 12.6-10.2 6.5-1.7 13-12.6 6.4-11 2.6-15.6l-11.5-13.6-7.3-1q0-2.4-1.9-4.6Z" data-rand=".8"/><path stroke="#000" stroke-linejoin="round" stroke-linecap="round" fill="none" d="m186.5 323.4 9.3-8.7q7.3-9 12.6-10.2 6.5-1.7 13-12.6 6.4-11 2.6-15.6l-11.5-13.6-7.3-1q0-2.4-1.9-4.6-4-5-13.8-5l-3 71.3Zm-72.6 0q-3.1-4.3-7.2-8.7-8.1-8.8-13.4-10.2-6.5-1.7-13.1-12.6-6.5-11-2.7-15.6L89 262.7l7.3-1q.2-2.2 2-4.6 4.2-4.8 13.7-5.3l1.9 71.6Z" data-rand=".6" stroke-width="3.4006"/></g></g><g class="head"><g class="c2"><path fill="#180900" d="m196.2 75.6-.7-.5q-20.3-16.1-49-14.6Q116.8 62 99 81.2q-3 3-4 6.7-1.6 4.9 3.4 5.4 1 .2 54-1 51.4-1.2 52.7-.6-.6-7-5.3-12.6-1.6-1.7-3.7-3.5Z" data-rand=".1"/><path stroke="#000" stroke-width="1.735" stroke-linejoin="round" stroke-linecap="round" fill="none" d="M98.5 93.3q1 .2 54-.9 51.5-1 53-.3-.2-7-5.6-13-1.6-1.7-3.6-3.4l-.8-.6q-20.3-16.1-49-14.6Q116.8 62 99 81.2q-3 3-4 6.7-1.6 4.9 3.4 5.4Z" data-rand=".4"/><path fill-opacity=".2" d="M112 72.7q-3 1.7-4 3.4-.3.6-1.5 4.7.5-1.5 2.3-4.1 1.9-3.2 3.3-4m19.6-1.3q-2.6 1.4-4 3.9 2.2-.6 4.7-2.8 2.5-2.5 4-3.3l-4.7 2.2m-3.5-5-1.7.5q-2.8.4-6.6 4.5.5-.8 1-3.2-3 1.3-3.4 2-.7 1-1.3 3.2l-.8 3.3q.3-1 1.2-1.8l1.5-1.4.2.9 10-8m12.4-4q-3.8 2-5.2 4l1.4-1.2q1.5-.9 2.6-1v1.5l2.6-1.5-.9 1.7q4-2.6 7.1-2.6-.1 1.6-.3 2l2.4-.6-.7 2q4.2-2.5 9.7-2.5-3-1.3-10.2-.6l1.2-1.2q-4.8-.1-9.9 2.1l.2-2Z" data-rand="0"/></g></g><g class="head"><g class="c1"><path fill="#eabfa1" d="M220.9 160q-3.6-5.2-9.8-1.8-5.9 3-7.2 9l-3.3 35q2.4 3.2 4.3 3.7 2.6.7 6.2-1.9 8.4-6 12-20 4-15-2.2-24m-17.4 29q-.5 5.4 3.8 9.4-4.3-4-3.8-9.5.5-5.8 6.5-7.2l-1.5-7.9q-1-4.1 3-6.3 2.3-1.4 4.4.1 2 1.6 2.4 4.7-.4-3.1-2.4-4.7-2-1.5-4.5-.1-4 2.2-3 6.3l1.6 8q-6 1.3-6.5 7.1Z" data-rand=".7"/><path stroke="#000" stroke-width="2.74824" stroke-linecap="round" stroke-miterlimit="3" fill="none" d="M203.9 167.1q1.3-5.8 7.2-9 6.2-3.3 9.8 2 6.1 9 2.2 23.9-3.6 14-12 20-3.6 2.6-6.2 2-1.9-.6-4.3-3.8" data-rand=".1"/><path stroke="#8c7361" stroke-width="1.03059" stroke-linecap="round" stroke-miterlimit="3" fill="none" d="M218.3 172.3q-.4-3.1-2.4-4.7-2-1.5-4.5-.1-4 2.2-3 6.3l1.6 8q-6 1.3-6.5 7.1-.5 5.5 3.8 9.5" data-rand=".4"/></g></g><g class="head"><g class="c1"><path fill="#eabfa1" d="M80 160q3.5-5.2 9.7-1.8 6 3 7.3 9l3.3 35q-2.4 3.2-4.3 3.7-2.6.7-6.3-1.9-8.4-6-12-20-4-15 2.2-24m17.4 29q.6 5.4-3.8 9.4 4.4-4 3.8-9.5-.5-5.8-6.5-7.2l1.5-7.9q1-4.1-2.9-6.3-2.4-1.4-4.5.1-2 1.6-2.4 4.7.3-3.1 2.4-4.7 2-1.5 4.5-.1 4 2.2 3 6.3l-1.6 8q6 1.3 6.5 7.1Z" data-rand=".1"/><path stroke="#000" stroke-width=".8" stroke-linecap="round" stroke-miterlimit="3" fill="none" d="M-1-.1Q-.8-2 1-2.8q1.9-1 2.9.5 1.8 2.6.6 7-1 4-3.5 5.8-1 .8-1.8.6Q-1.3 11-2 10" data-rand=".6" transform="matrix(-3.451 0 0 3.4353 93.37 167.636)"/><path stroke="#8c7361" stroke-width=".3" stroke-linecap="round" stroke-miterlimit="3" fill="none" d="M3.1 1.4q0-1-.6-1.4Q1.9-.5 1 0 0 .5.3 1.8l.5 2.3q-1.8.4-2 2.1-.1 1.6 1.1 2.7" data-rand=".9" transform="matrix(-3.451 0 0 3.4353 93.37 167.636)"/></g></g><g class="head"><g class="c1"><path fill="#eabfa1" d="M193.6 82.6q-12.5-13.2-34-15.6-20.3-2.1-37.1 6.2-14 7.1-23.4 21.9-8.9 14.2-10.3 30.9-.7 8 .4 19.6.5 6.4 1.9 19.4.7 9.6 2.6 20.1l1.7 8.2q44.3 44.3 110 0l.2-2.3q0-1.2.7-5.9l3.8-24q2.8-18.1 2-30.3-1.8-30.9-18.5-48.2Z" data-rand=".7"/><path stroke="#000" stroke-width="3.123" stroke-linecap="round" stroke-miterlimit="3" fill="none" d="m205.4 193.3.2-2.3q0-1.2.8-5.9l3.7-24q2.8-18.1 2-30.3-1.8-30.9-18.5-48.2-12.5-13.2-34-15.6-20.3-2.1-37.1 6.2-14 7.1-23.4 21.9-8.9 14.2-10.3 30.9-.7 8 .4 19.6.5 6.4 1.9 19.4.7 9.6 2.7 20.1l1.6 8.2" data-rand="0"/></g></g><g class="head"><path class="customDrawFill" d="M195.9 216.3q4-5.8 9.3-23H95.6q5.9 17.2 9.9 23Z" fill="#eabfa1"/><g class="c1"><path fill="#eabfa1" d="M146.4 249.3h2.6q8.2-.2 11-.7l3.4-.7q5.2-1.5 9-4.6 13-10.5 23.5-27-44.6-13.7-90.2 0 .6 1.6 1.7 3.3l4.3 6.2q2 2.9 5.4 6l6 5.1q7.9 6.7 10.8 8.6 6.3 3.8 12.5 3.8Z" data-rand=".6"/><path stroke="#000" stroke-width=".9" stroke-linecap="round" stroke-miterlimit="10" fill="none" d="m-12.9-.3.5.9 1.3 1.8q.5.9 1.5 1.8l1.8 1.5 3 2.5q1.8 1 3.6 1h.8l3.1-.1 1-.3q1.5-.4 2.6-1.3 3.8-3 6.8-7.8" data-rand=".9" transform="matrix(3.47 0 0 3.44 150.417 217.534)"/></g><path class="customDrawStroke" d="M13.1-.3q1.2-1.7 2.7-6.8m-31.6 0q1.7 5 2.9 6.8" fill="none" stroke-linecap="round" stroke="#000" transform="matrix(3.47 0 0 3.44 150.417 217.534)"/></g><g class="head"><path fill="#fff" fill-opacity=".4" d="M113 176.1q-1.8-1-3.6-.9-2.4.4-5.9 3.2-1 .5-.7 1 .2.7 5.4.7l3.3.2q2.6.1 3.1-.4.7-.5 0-1.9-.7-1.2-1.5-1.9Z" data-rand=".6" class="c0"/></g><g class="head"><path fill="#fff" fill-opacity=".4" d="M196 176.1q-1.8-1-3.6-.9-2.4.4-5.9 3.2-1 .5-.7 1 .2.7 5.4.7l3.3.2q2.6.1 3.1-.4.7-.5 0-1.9-.7-1.2-1.5-1.9Z" data-rand="0" class="c0"/></g><g transform="matrix(3.05 0 0 3.05 179.634 163.472)" class="head"><use xlink:href="#reuse-16"/><mask id="a"><use xlink:href="#reuse-16"/></mask><g class="offset" mask="url(#a)"><g class="c10"><use data-rand=".1" xlink:href="#reuse-17"/><use stroke-width=".297" stroke-miterlimit="10" data-rand=".3" xlink:href="#reuse-18"/><use stroke-width=".297" stroke-miterlimit="3" data-rand=".1" xlink:href="#reuse-19"/><use fill-opacity=".2" data-rand=".2" xlink:href="#reuse-20"/><use fill-opacity=".7" data-rand=".9" xlink:href="#reuse-21"/><use fill-opacity=".3" data-rand=".5" xlink:href="#reuse-22"/><use data-rand=".9" xlink:href="#reuse-23"/></g></g><g class="c1"><use fill-opacity=".1" data-rand=".1" xlink:href="#reuse-24"/><use stroke-width=".3" stroke-linecap="round" stroke-miterlimit="3" data-rand=".6" xlink:href="#reuse-25"/><use stroke-width=".8" stroke-linejoin="round" stroke-linecap="round" data-rand=".6" xlink:href="#reuse-26"/><use stroke-width=".3" stroke-linejoin="round" stroke-linecap="round" data-rand="0" xlink:href="#reuse-27"/><use stroke-width=".8" stroke-linecap="round" stroke-miterlimit="3" data-rand=".9" xlink:href="#reuse-28"/></g></g><g transform="matrix(-3.05 0 0 3.05 121.2 163.472)" class="head"><use xlink:href="#reuse-16"/><mask id="b"><use xlink:href="#reuse-16"/></mask><g class="offset" mask="url(#b)"><g class="c10"><use data-rand=".5" xlink:href="#reuse-17"/><use stroke-width=".297" stroke-miterlimit="10" data-rand=".8" xlink:href="#reuse-18"/><use stroke-width=".297" stroke-miterlimit="3" data-rand=".2" xlink:href="#reuse-19"/><use fill-opacity=".2" data-rand=".5" xlink:href="#reuse-20"/><use fill-opacity=".7" data-rand=".7" xlink:href="#reuse-21"/><use fill-opacity=".3" data-rand=".8" xlink:href="#reuse-22"/><use data-rand=".9" xlink:href="#reuse-23"/></g></g><g class="c1"><use fill-opacity=".1" data-rand=".4" xlink:href="#reuse-24"/><use stroke-width=".3" stroke-linecap="round" stroke-miterlimit="3" data-rand="1" xlink:href="#reuse-25"/><use stroke-width=".8" stroke-linejoin="round" stroke-linecap="round" data-rand=".7" xlink:href="#reuse-26"/><use stroke-width=".3" stroke-linejoin="round" stroke-linecap="round" data-rand=".5" xlink:href="#reuse-27"/><use stroke-width=".8" stroke-linecap="round" stroke-miterlimit="3" data-rand=".2" xlink:href="#reuse-28"/></g></g><g class="head"><g class="c25"><path fill="#180900" d="M195.4 210q-3.7 4-7.5 5.3l-12.7 4.7q-.1 2.7-1.7 5.9-3.3 6.4-9.2 8.8l-.4-3.8q-2.2 1.7-3-1.2-6.8 1.7-10.1 1.2h-.7q-2.1.3-6.3-.4l-3.8-.8q-.9 3-3.1 1.2l-1 3.8q-6-1.6-8.7-8.3-1.4-3.3-1.8-6.4l-12.5-4.7q-7.6-2-13.1-12.3-5.8-12.7-6.8-27-1.2 2.3-2.3 21.8 0 5.3 1.6 20 .5 5.5 4.7 14.8 3.1 7 6 11.5 6.3 9 14.3 13.3l5 1.8q0 .8 1.2 3l.9-3q1 .5 2.6 3.4l.5-1.9q1.6.7 4.7 2.5 1.4.5 3 .8 1 .4 1.9 2.1l1.3-1.4q1 .7 2.5 2.3l1-2 .7 1.3q9.2-.5 10 0l-.1-.2q17-1.4 29.5-7.8 4.2-2 7-4.3 1.8-1.4 4.1-4.9 1 .5 1.4 2 .7-1 1.5-4.8l1.6 1.8v-4.4l1.2 2.6 1.4-4.5.5-6.2q1.6 2.2 2.5 2.6.7-3.8 1.9-6.6 1.7-4 2-6.3.2-.7 1-11.6.8-9.4-1.6-34.2-4.6 19.6-6 23-2 4.1-5.1 7.6Z" data-rand=".5"/><path stroke="#0e0500" stroke-width=".34700000000000003" stroke-linejoin="round" stroke-linecap="round" fill="none" d="m117.3 257.4 5 1.8q0 .8 1.2 3m.9-3q1 .5 2.6 3.4m.5-1.9q1.6.7 4.7 2.5 1.4.5 3 .8 1 .4 1.9 2.1m3.8.9 1-2m.7 1.3q9.2-.5 10 0m-.1-.2q17-1.4 29.5-7.8 4.2-2 7-4.3 1.8-1.4 4.1-4.9m4.5-1v-4.4m1.2 2.6 1.4-4.5.5-6.2" data-rand=".1"/><path stroke="#0e0500" stroke-width="1.041" stroke-linejoin="round" stroke-linecap="round" fill="none" d="M200.7 235.6q1.6 2.2 2.5 2.6.7-3.8 1.9-6.6 1.7-4 2-6.3.2-.7 1-11.6.8-9.4-1.6-34.2-4.6 19.6-6 23-2 4.1-5.1 7.6-3.7 4-7.5 5.2l-12.7 4.7q-.1 2.7-1.7 5.9-3.3 6.4-9.2 8.8l-.4-3.8q-2.2 1.7-3-1.2-6.8 1.7-10.1 1.2h-.7q-2.1.3-6.3-.4l-3.8-.8q-.9 3-3.1 1.2l-1 3.8q-6-1.6-8.7-8.3-1.4-3.3-1.8-6.4l-12.5-4.7q-7.6-2-13.1-12.3-5.8-12.7-6.8-27-1.2 2.3-2.3 21.8 0 5.3 1.6 20 .5 5.5 4.7 14.8 3.1 7 6 11.5 6.3 9 14.3 13.3m6.2 4.7.9-3m2.6 3.5.5-1.9m9.6 5.4 1.3-1.4q1 .7 2.5 2.3m1-2 .7 1.3m10 0-.1-.2m40.6-17q1 .5 1.4 2 .7-1 1.5-4.8l1.6 1.8m0-4.4 1.2 2.6" data-rand=".2"/><path fill-opacity=".2" d="M206.6 180.4q-.8 7.6-1.7 20-2.3 13.3-4.2 19-3.3 11.3-7.6 21.4-1.2-1.4-1.4-2-2 5.5-3.5 7.4l-.5-5.2q-3.1 3.8-7.8 6.7-5.4 3.1-8.5 5.2l-1.4-1.2-1.9 1.2q-.7-2.2-.5-3.4-1.4 1-3.1 3.6-1 2-3.7 2.8-2.7 1.2-4.5 1.7-3.1.9-4.7.9-3.6-.2-10-3.8-6.5-3.5-9.7-3.9v2q-2.8-3-12.4-8.4l-.3.7q-.2.4-6.3-6.6l-.8 2.8q-.5 1.6-1 2.4-2.1-2-3.2-8-1.6-6.7-3-8.8-1.8 3.8-2.2 5.4-2-3.1-3.5-8.3l-1.9-9q-.3-2.3-1.9-9-1.4-5.8-1.7-9.3-.2-2 0-8 0-5.3-1.4-7.6-.5 2-.9 6.4-.8 13.7.9 30.4.5 5.4 4.7 14.7 3.1 7 6 11.5 3.5 5 6.5 7.8 3.3 3.1 7.8 5.5l5 1.8q0 .8 1.2 3l.9-3q1 .5 2.6 3.4l.5-1.9q1.6.7 4.7 2.5 1.4.5 3 .8 1 .4 1.9 2.1l1.3-1.4q1 .7 2.5 2.3l1-2 .7 1.3q9.2-.5 10 0l-.1-.2q17-1.4 29.5-7.8 4.2-2 7-4.3 1.8-1.4 4.1-4.9 1 .5 1.4 2 .7-1 1.5-4.8l1.6 1.8v-4.4l1.2 2.6 1.4-4.5.5-6.2q1.6 2.2 2.5 2.6.1-4.5 1-6.6.2-.7 1.2-1 1.2-2.7 1.8-5.3l1-11.6q.7-9.9-1.6-33.3Z" data-rand=".6"/></g></g><g class="head"><g class="c3"><path fill="#cf967b" d="M167 216.3q.2-1-6.3-2.8-7.4-1.9-13.5-1.2-5.9.7-9.8 2.5-2.1.7-3 1.3h.7l-.1.4q-.6 1.2.6 3.1 1.8 2.6 5.5 2.8 2 .2 6.4-.7 1.9-.3 11 .5 8-.2 8.4-5 0-.4-.2-.7l.2-.2Z" data-rand=".7"/><path fill="#fff" fill-opacity=".4" d="M159.3 219.4q0-.5-1.3-.7-2.4.4-4.3 1-3.6.8-.9 1.3 3.3.5 5.7-.7 1-.5.8-.9Z" data-rand=".8"/><path stroke="#000" stroke-width=".5" stroke-linejoin="round" stroke-linecap="round" fill="none" d="M-5 0H5.2" data-rand=".6" transform="matrix(3.44 0 0 3.47 150.417 216.667)"/></g><path stroke="#7c5a4a" stroke-width=".3" stroke-linejoin="round" stroke-linecap="round" fill="none" d="M-1.9 2.1q1.4-.2 3.1 0" data-rand=".8" transform="matrix(3.44 0 0 3.47 150.417 216.667)" class="c3"/></g><g class="head"><g class="c25"><path fill="#180900" d="M152.8 210q8.7.4 13.8 3 1.5.9 5.7 2.8 3.8 2 4.1 4.5l-.1-2.2q2.6 3.3 3 5.5.6-2.6.6-3.5.4-2 0-4-.5-4.3-2.8-7.4-2.2-3.7-5.5-5-1.4-.6-4.4-.6l-4.6-.1.7-1-2.8-.4 1.5-1h-5.9q-4.1-.2-6 .8-1.8-.9-6-.5-4.6.2-5.7 0l1.8 1-2.8.5.7 1q-1.4.3-4.5.3-3 0-4.4.5-3.2 1.4-5.5 5.4-2 3.2-2.6 7.4v4l.7 3.5q.5-2.3 3.1-5.6l-.2 2.1q.4-2.4 4-4.5 2-1.2 5.6-3 6.6-3.6 18.5-3.3v-.1Z" data-rand=".6"/><path fill-opacity=".2" d="M166.6 213q1.5.9 5.7 2.8 3.8 2 4.1 4.5l-.1-2.2q2.6 3.3 3 5.5.6-2.6.6-3.5l.2-1.5q-4.2-7-9.9-8.7 1.9 0 5.4.7-3.1-2.3-5.4-3.1-2-.7-6-.9-1.6 0-6.5-.9-4-.5-6.2-.3l.1.9q-4.8-1.3-10.9.1-6.2 1.4-9.9 4.7.7-1.7 2.3-3.6-6.1 2.6-8 7.3 1.4-3.7 5-8-7.6 5.2-9 13.2v1l.7 3.5q.5-2.3 3.1-5.6l-.2 2.1q.4-2.4 4-4.5 2-1.2 5.6-3 6.6-3.6 18.5-3.3v-.1q8.7.3 13.8 3Z" data-rand=".7"/><path stroke="#0e0500" stroke-width=".34700000000000003" stroke-linejoin="round" stroke-linecap="round" fill="none" d="m160.5 201.6 1.5-1m-23.6.3 1.8 1m-2.8.5.7 1m-16.3 21q.5-2.2 3.1-5.5l-.2 2.1q.4-2.4 4-4.5 2-1.2 5.6-3 6.6-3.6 18.5-3.3v-.1q8.7.3 13.8 3l5.7 2.7q3.8 2 4.1 4.5l-.1-2.2q2.6 3.3 3 5.5M162.7 203l.7-1" data-rand=".1"/><path stroke="#0e0500" stroke-width="1.041" stroke-linejoin="round" stroke-linecap="round" fill="none" d="m163.3 202-2.8-.4m1.5-1h-5.9q-4.1-.2-6 .8-1.8-.9-6-.5-4.6.2-5.7 0m1.8 1-2.8.5m.7 1q-1.4.3-4.5.3-3 0-4.4.5-3.2 1.4-5.5 5.4-2 3.2-2.6 7.4v4l.7 3.5m57.6-.9q.5-2.6.5-3.5.4-2 0-4-.5-4.3-2.8-7.4-2.2-3.7-5.5-5-1.4-.6-4.4-.6l-4.6-.1" data-rand=".1"/></g></g><g class="head"><path fill="#fff" fill-opacity="0" d="M134.8 155.5v49.4H166v-49.4h-31.2Z" data-rand=".2" class="c0"/><g class="c1"><path fill="#eabfa1" d="M159.4 195.2q1.3-6-4.6-7.3-7.2-1.6-12.2-1.4-4.2.2-5.2 1.2v.9q0 3.5 2.3 6.8l.3.7q2.3 3.8 6.6 4.3 3.6.5 7-1.2 2-1 5.8-4Z" data-rand=".1"/><path fill="#fff" fill-opacity=".4" d="M142 189.6q5.8 1 7.2.6 6-2 1.2-4.4-4.8-2.6-7.6.2-1 1.4-.9 3.6Z" data-rand=".3"/><path fill-opacity=".2" d="M144.3 179.2q-1.7 2.1-4.6 4.7-2.3 2.3-2.3 4.7 0 3.5 2.3 6.8l.3.7q2.3 3.8 6.6 4.3 3.6.5 7-1.2 2-1 5.8-4-1-1.2-5-.9-4.3.7-5.5.7-2.5 0-7-1.4-1.7-2.8-2-3.8-1-3.5 4.4-10.6Z" data-rand=".4"/></g></g><g class="head"><path fill-opacity=".6" d="M120.2 200.6q-.5.6-.5 1.2 0 1 .5 1 .5.4 1.2.6 1 0 1.6-.5.5-.5.5-1.2t-.5-1.2q-.7-.4-1.4-.4t-1.4.5Z" data-rand=".8" class="c1"/></g><g class="head"><g class="c20"><path fill="#180900" d="m192 139.7-4-.1q-2.3 0-13 2.2-10.8 2.3-13.2 3.1.1.6.7 1.6.8 1.7 2.7 3.6 1 .7 2.1.7.9 0 2-.3 9.5-3 19.4-3.6 2.6-.2 4.3.1 1.7.2 4.2 1.2 4.3 1.6 8.1 3.3-1.9-2.6-3-3.8-2.5-3.5-4.1-5-1.6-1.6-2.4-2-1.6-.8-3.8-1Z" data-rand=".7"/><path stroke="#130700" stroke-width="1.041" stroke-linejoin="round" fill="none" d="M202.4 147.7q-2.6-3.5-4.2-5-1.6-1.6-2.4-2-1.6-.8-3.8-1l-4-.1q-2.3 0-13 2.2-10.8 2.3-13.2 3.1.1.6.7 1.6.8 1.7 2.7 3.6 1 .7 2.1.7.9 0 2-.3 9.5-3 19.4-3.6 2.6-.2 4.3.1 1.7.2 4.2 1.2 4.3 1.6 8.1 3.3-1.9-2.6-3-3.8Z" data-rand=".3"/></g></g><g class="head"><g class="c20"><path fill="#180900" d="m108.9 139.7 4-.1q2.2 0 13 2.2 10.7 2.3 13.1 3.1-.1.6-.7 1.6-.8 1.7-2.7 3.6-1 .7-2.1.7-.9 0-2-.3-9.4-3-19.3-3.6-2.6-.2-4.3.1-1.8.2-4.2 1.2-4.3 1.6-8.1 3.3 1.9-2.6 3-3.8 2.5-3.5 4-5 1.6-1.6 2.5-2 1.6-.8 3.8-1Z" data-rand=".5"/><path stroke="#130700" stroke-width=".3" stroke-linejoin="round" fill="none" d="M6.5.5 5.3-1l-.6-.6-1.2-.3H2.4l-3.8.6-3.8 1 .3.4q.2.5.8 1 .2.3.5.3l.6-.1Q-.2.3 2.6.1h1.3L5 .7l2.4 1L6.5.4Z" data-rand=".9" transform="matrix(-3.4638 0 0 3.47 121.2 146.156)"/></g></g><g class="head"><g class="c2"><g transform="matrix(3.47 0 0 3.47 150.417 217.708)"><linearGradient id="c" gradientUnits="userSpaceOnUse" x1="-16.7" y1="-34.8" x2="-16.7" y2="-17.1" spreadMethod="pad"><stop offset="0%" stop-color="#180900"/><stop offset="100%" stop-color="#180900" stop-opacity="0"/></linearGradient><path fill="url(#c)" d="m-15-33.4-.4-1.3q-.5.9-1.2 3-.8 2.8-1.2 5.5-.3 2 .3 5.7l.4 3.3q0-2.4.2-4.7l.3-2.8.1-1 .7-3.9.9-3.8Z" data-rand=".5"/><linearGradient id="d" gradientUnits="userSpaceOnUse" x1="16.6" y1="-34.5" x2="16.6" y2="-17.3" spreadMethod="pad"><stop offset="0%" stop-color="#180900"/><stop offset="100%" stop-color="#180900" stop-opacity="0"/></linearGradient><path fill="url(#d)" d="m15.7-34.6-.9 1.3.8 3.7.8 3.9.1 1 .3 2.8.1 4.6.6-2.6q.6-3.3.4-7.2 0-.9-1-4-.9-3-1.2-3.5Z" data-rand=".7"/></g><path stroke="#0e0500" stroke-width="1.041" stroke-linejoin="round" stroke-linecap="round" fill="none" d="M201.8 102q2 7.6 4.1 18.5 4 21.6 3.2 37.4m-110.6-56q-2 7.7-4.1 18.6-4 21.6-3.1 37.4" data-rand=".7"/><path stroke="#000" stroke-width="3.123" stroke-linecap="round" stroke-miterlimit="3" fill="none" d="M210 161.8q2.9-19.6 2.2-31-1.5-23.4-11.4-39m-99.5 0L99.1 95q-8.9 14.3-10.3 31-.7 8 .4 19.5.5 6.5 1.9 19.5" data-rand=".7"/><path fill="#180900" d="M204.4 102.5q1.9-1.2 2.8-6.4 1.2-5.7-7.3-14-6.8-6.5-11.8-8.7-17.4-7.3-28-8.7-20.3-3-42.3 7-11.8 5.3-17.2 10-9.2 8-7.3 17.9.6 2 2.8 2.7 1.7.4 2.4 0 15.3 1.4 18 1.4 9.1 0 19.7 2 15.4 3 16 3 1.3 0 6-.8 4.4-1 6.3-1.6 8-2.6 24.6-3.4 5.2-.4 15.3-.4Z" data-rand=".4"/><path fill-opacity=".2" d="M98.2 98q1.9 2.4 5 4.9l2.1.1q-4.7-2.2-7.1-5m54 10.7q4.5 0 12.3-2.4 8-2.6 24.6-3.4l17.2-1q-6 0-11.8-4-2.3-1.5-9.9-8l6.4 7q-3-.3-6-2-3.5-2.1-4.4-4.7.7 3.1 3.6 5.4l5.4 4q-6.7-.2-11.8-3.9-5.3-4.1-6.2-10.5-1.8 5.7 4.1 14-5.7-3.1-10.2-11.8-1 3.1 1 7 1.8 3.2 5 5.5-10.8-5.6-14.5-15 0 3.6.9 5.8.7 2 3 4.9-2.5.8-8.7-.9l-4.4-1.2q-3.5-1-4-1.8 2.6 3.7 5.2 5.4-3-1.4-8.5-2.4l3.5 4.5q-8-4-9.9-4.7l4.5 4.7q2.6 2.6 4.9 4L132 98.7q-8-3.5-9.2-7.8.9 5.2 7.5 11-7-2.2-10-4-5.8-3.6-5.6-8.6-.5 6 7.6 12.5-5.7-1.9-8.1-3.6-3.3-2.1-5-5.8 2.7 6.3 6.7 8.7-7.3-2.8-11.1-9.7l-1.6 1.2q1.6 7 7.3 10.8l6 .3q9.1 0 19.7 2 15.4 3 16 3Z" data-rand=".3"/><path fill="#fff" fill-opacity=".4" d="M124.7 94.2q1.3.3 6.5 3.8 4 2.6 7 2.2-7.4-6.9-9.1-11.7-.5 2.6.5 4.6.7 1.2 3.1 3.5-1.9-1.6-5.5-3.1-2.6-1.8-2.8-5.2-2.3 1.9-2.6 3.4-.5 1.6 1.4 3.3-4.5-1.9-5.6-6.5l.2 4.8q.3 1.7 1 2.8l-2-1.6q2 3 5.3 4.4.7.3 3.3.7 2.3.1 3 .5-4.2-2.5-3.7-6m35-8.3q0 1.8 1.1 3.9 2.1 4.6 7.5 7.6-8.3-9.4-8.5-11.5m-8.9 6q1.4 1.5 5.2 4.5-.8-1-1.5-2.8l-1.2-2.8q-2.3-3.6-5-5.2.1 4 2.5 6.2Z" data-rand=".7"/><path stroke="#000" stroke-width="1.735" stroke-linejoin="round" stroke-linecap="round" fill="none" d="M180.4 103.9q21-2 24-1m-77.8 1.7 9.8 1.2q10.5 1.6 14.7 3.5l27.3-5m-54.4 0q-21.8-2.3-25-1.4" data-rand=".5"/><path stroke="#000" stroke-width="1.041" stroke-linejoin="round" stroke-linecap="round" fill="none" d="M204.9 88.1q3.8 5.9.9 12.8m-35-7.6q.8 2.4 2.5 5.4 2.6 4 5.6 5m-.9-12.1q.5 3.4 5.4 7.3 4.7 3.6 8.5 4.1m-35.2-15.2q.3 4.8 5.5 10.7 5.2 6 10 6.6M94.8 102q-1.9-2-1.4-7.1.4-4.9 2.5-7.7m31.7 9.2q2.8 3.2 7.8 6.1 2.8 1.6 8.7 4-3.1-2.2-6.2-8.2-3.7-6.9-3.3-11.4m10.9 20.3-1.4-.8m-26.5-10.1q-.6 2.6 5.3 6 2.7 1.6 4.6 2.3l1 .3q1.3.4 2.2.4m-22-11.1q-.2 3.6 7.8 7.3 6.6 3.1 11 3m11-18q1 5.2 7 11.5 2 2.2 9.9 9.4m-10.4-21.9q.1 4.7 4.3 12.3 4.3 8.3 8.3 9.6" data-rand=".6"/><path stroke="#000" stroke-width="1.041" stroke-linejoin="round" stroke-linecap="round" fill="none" d="M189.3 89.3q-2.3.5-5 .7-5.3.4-6.8-.9l-1.4-5.3q-7.6 4.7-9.2 7l-4.3-1.7q-4.5-2.4-5.6-5.5l-8.8 3.5v-1.4q-.2-1.6-1-2.5-1.3-1.2-4.2-.8-3.7.2-8 2.6l.1-3.7q-1.7 2.1-6.4 4.2-9.5 4-24.6 3.8" data-rand=".1"/></g></g></svg>